  0
SECTION
  2
HEADER
  9
$ACADVER
  1
AC1009
  9
$EXTMIN
 10
0.0
 20
0.0
 30
0.0
  9
$EXTMAX
 10
1000.0
 20
1000.0
 30
0.0
  9
$FILLMODE
 70
 0
  9
$SPLFRAME
 70
 1
  0
ENDSEC
  0
SECTION
  2
TABLES
  0
TABLE
  2
LAYER
 70
1
  0
LAYER
  2
0
 70
     0
 62
     7
  6
CONTINUOUS
  0
ENDTAB
  0
ENDSEC
  0
SECTION
  2
ENTITIES
  0
LINE
  8
0
 62
     5
 10
341.708
 20
111.383
 30
0.0
 11
341.944
 21
111.373
 31
0.0
  0
LINE
  8
0
 62
     5
 10
341.944
 20
111.373
 30
0.0
 11
342.178
 21
111.347
 31
0.0
  0
LINE
  8
0
 62
     5
 10
342.178
 20
111.347
 30
0.0
 11
342.408
 21
111.3
 31
0.0
  0
LINE
  8
0
 62
     5
 10
342.408
 20
111.3
 30
0.0
 11
342.635
 21
111.236
 31
0.0
  0
LINE
  8
0
 62
     5
 10
342.635
 20
111.236
 30
0.0
 11
342.856
 21
111.154
 31
0.0
  0
LINE
  8
0
 62
     5
 10
342.856
 20
111.154
 30
0.0
 11
343.071
 21
111.056
 31
0.0
  0
LINE
  8
0
 62
     5
 10
343.071
 20
111.056
 30
0.0
 11
343.275
 21
110.94
 31
0.0
  0
LINE
  8
0
 62
     5
 10
343.275
 20
110.94
 30
0.0
 11
343.472
 21
110.811
 31
0.0
  0
LINE
  8
0
 62
     5
 10
343.472
 20
110.811
 30
0.0
 11
343.657
 21
110.665
 31
0.0
  0
LINE
  8
0
 62
     5
 10
343.657
 20
110.665
 30
0.0
 11
343.83
 21
110.505
 31
0.0
  0
LINE
  8
0
 62
     5
 10
343.83
 20
110.505
 30
0.0
 11
343.99
 21
110.331
 31
0.0
  0
LINE
  8
0
 62
     5
 10
343.99
 20
110.331
 30
0.0
 11
344.136
 21
110.147
 31
0.0
  0
LINE
  8
0
 62
     5
 10
344.136
 20
110.147
 30
0.0
 11
344.267
 21
109.951
 31
0.0
  0
LINE
  8
0
 62
     5
 10
344.267
 20
109.951
 30
0.0
 11
344.381
 21
109.744
 31
0.0
  0
LINE
  8
0
 62
     5
 10
344.381
 20
109.744
 30
0.0
 11
344.48
 21
109.53
 31
0.0
  0
LINE
  8
0
 62
     5
 10
344.48
 20
109.53
 30
0.0
 11
344.562
 21
109.31
 31
0.0
  0
LINE
  8
0
 62
     5
 10
344.562
 20
109.31
 30
0.0
 11
344.625
 21
109.083
 31
0.0
  0
LINE
  8
0
 62
     5
 10
344.625
 20
109.083
 30
0.0
 11
344.672
 21
108.853
 31
0.0
  0
LINE
  8
0
 62
     5
 10
344.672
 20
108.853
 30
0.0
 11
344.7
 21
108.619
 31
0.0
  0
LINE
  8
0
 62
     5
 10
344.7
 20
108.619
 30
0.0
 11
344.708
 21
108.383
 31
0.0
  0
LINE
  8
0
 62
     5
 10
344.708
 20
108.383
 30
0.0
 11
344.708
 21
3.13228
 31
0.0
  0
LINE
  8
0
 62
     5
 10
344.708
 20
3.13228
 30
0.0
 11
344.7
 21
2.89664
 31
0.0
  0
LINE
  8
0
 62
     5
 10
344.7
 20
2.89664
 30
0.0
 11
344.672
 21
2.66237
 31
0.0
  0
LINE
  8
0
 62
     5
 10
344.672
 20
2.66237
 30
0.0
 11
344.625
 21
2.43086
 31
0.0
  0
LINE
  8
0
 62
     5
 10
344.625
 20
2.43086
 30
0.0
 11
344.562
 21
2.20486
 31
0.0
  0
LINE
  8
0
 62
     5
 10
344.562
 20
2.20486
 30
0.0
 11
344.48
 21
1.983
 31
0.0
  0
LINE
  8
0
 62
     5
 10
344.48
 20
1.983
 30
0.0
 11
344.381
 21
1.77078
 31
0.0
  0
LINE
  8
0
 62
     5
 10
344.381
 20
1.77078
 30
0.0
 11
344.267
 21
1.56407
 31
0.0
  0
LINE
  8
0
 62
     5
 10
344.267
 20
1.56407
 30
0.0
 11
344.136
 21
1.36839
 31
0.0
  0
LINE
  8
0
 62
     5
 10
344.136
 20
1.36839
 30
0.0
 11
343.99
 21
1.18374
 31
0.0
  0
LINE
  8
0
 62
     5
 10
343.99
 20
1.18374
 30
0.0
 11
343.83
 21
1.0101
 31
0.0
  0
LINE
  8
0
 62
     5
 10
343.83
 20
1.0101
 30
0.0
 11
343.657
 21
0.850251
 31
0.0
  0
LINE
  8
0
 62
     5
 10
343.657
 20
0.850251
 30
0.0
 11
343.472
 21
0.704176
 31
0.0
  0
LINE
  8
0
 62
     5
 10
343.472
 20
0.704176
 30
0.0
 11
343.275
 21
0.574643
 31
0.0
  0
LINE
  8
0
 62
     5
 10
343.275
 20
0.574643
 30
0.0
 11
343.071
 21
0.458886
 31
0.0
  0
LINE
  8
0
 62
     5
 10
343.071
 20
0.458886
 30
0.0
 11
342.856
 21
0.359668
 31
0.0
  0
LINE
  8
0
 62
     5
 10
342.856
 20
0.359668
 30
0.0
 11
342.635
 21
0.278364
 31
0.0
  0
LINE
  8
0
 62
     5
 10
342.635
 20
0.278364
 30
0.0
 11
342.408
 21
0.214974
 31
0.0
  0
LINE
  8
0
 62
     5
 10
342.408
 20
0.214974
 30
0.0
 11
342.178
 21
0.168121
 31
0.0
  0
LINE
  8
0
 62
     5
 10
342.178
 20
0.168121
 30
0.0
 11
341.944
 21
0.141938
 31
0.0
  0
LINE
  8
0
 62
     5
 10
341.944
 20
0.141938
 30
0.0
 11
341.708
 21
0.130914
 31
0.0
  0
LINE
  8
0
 62
     5
 10
341.708
 20
0.130914
 30
0.0
 11
3.09507
 21
0.132292
 31
0.0
  0
LINE
  8
0
 62
     5
 10
3.09507
 20
0.132292
 30
0.0
 11
2.85943
 21
0.141938
 31
0.0
  0
LINE
  8
0
 62
     5
 10
2.85943
 20
0.141938
 30
0.0
 11
2.62516
 21
0.168121
 31
0.0
  0
LINE
  8
0
 62
     5
 10
2.62516
 20
0.168121
 30
0.0
 11
2.39503
 21
0.214974
 31
0.0
  0
LINE
  8
0
 62
     5
 10
2.39503
 20
0.214974
 30
0.0
 11
2.16765
 21
0.278364
 31
0.0
  0
LINE
  8
0
 62
     5
 10
2.16765
 20
0.278364
 30
0.0
 11
1.94717
 21
0.359668
 31
0.0
  0
LINE
  8
0
 62
     5
 10
1.94717
 20
0.359668
 30
0.0
 11
1.73357
 21
0.458886
 31
0.0
  0
LINE
  8
0
 62
     5
 10
1.73357
 20
0.458886
 30
0.0
 11
1.52687
 21
0.574643
 31
0.0
  0
LINE
  8
0
 62
     5
 10
1.52687
 20
0.574643
 30
0.0
 11
1.33119
 21
0.704176
 31
0.0
  0
LINE
  8
0
 62
     5
 10
1.33119
 20
0.704176
 30
0.0
 11
1.14653
 21
0.850251
 31
0.0
  0
LINE
  8
0
 62
     5
 10
1.14653
 20
0.850251
 30
0.0
 11
0.972894
 21
1.0101
 31
0.0
  0
LINE
  8
0
 62
     5
 10
0.972894
 20
1.0101
 30
0.0
 11
0.813043
 21
1.18374
 31
0.0
  0
LINE
  8
0
 62
     5
 10
0.813043
 20
1.18374
 30
0.0
 11
0.666972
 21
1.36839
 31
0.0
  0
LINE
  8
0
 62
     5
 10
0.666972
 20
1.36839
 30
0.0
 11
0.537436
 21
1.56407
 31
0.0
  0
LINE
  8
0
 62
     5
 10
0.537436
 20
1.56407
 30
0.0
 11
0.421679
 21
1.77078
 31
0.0
  0
LINE
  8
0
 62
     5
 10
0.421679
 20
1.77078
 30
0.0
 11
0.323839
 21
1.983
 31
0.0
  0
LINE
  8
0
 62
     5
 10
0.323839
 20
1.983
 30
0.0
 11
0.241157
 21
2.20486
 31
0.0
  0
LINE
  8
0
 62
     5
 10
0.241157
 20
2.20486
 30
0.0
 11
0.177767
 21
2.43086
 31
0.0
  0
LINE
  8
0
 62
     5
 10
0.177767
 20
2.43086
 30
0.0
 11
0.130914
 21
2.66237
 31
0.0
  0
LINE
  8
0
 62
     5
 10
0.130914
 20
2.66237
 30
0.0
 11
0.104731
 21
2.89664
 31
0.0
  0
LINE
  8
0
 62
     5
 10
0.104731
 20
2.89664
 30
0.0
 11
0.0950846
 21
3.13228
 31
0.0
  0
LINE
  8
0
 62
     5
 10
0.0950846
 20
3.13228
 30
0.0
 11
0.0950846
 21
108.383
 31
0.0
  0
LINE
  8
0
 62
     5
 10
0.0950846
 20
108.383
 30
0.0
 11
0.104731
 21
108.619
 31
0.0
  0
LINE
  8
0
 62
     5
 10
0.104731
 20
108.619
 30
0.0
 11
0.130914
 21
108.853
 31
0.0
  0
LINE
  8
0
 62
     5
 10
0.130914
 20
108.853
 30
0.0
 11
0.177767
 21
109.083
 31
0.0
  0
LINE
  8
0
 62
     5
 10
0.177767
 20
109.083
 30
0.0
 11
0.241157
 21
109.31
 31
0.0
  0
LINE
  8
0
 62
     5
 10
0.241157
 20
109.31
 30
0.0
 11
0.323839
 21
109.53
 31
0.0
  0
LINE
  8
0
 62
     5
 10
0.323839
 20
109.53
 30
0.0
 11
0.421679
 21
109.744
 31
0.0
  0
LINE
  8
0
 62
     5
 10
0.421679
 20
109.744
 30
0.0
 11
0.537436
 21
109.951
 31
0.0
  0
LINE
  8
0
 62
     5
 10
0.537436
 20
109.951
 30
0.0
 11
0.666972
 21
110.147
 31
0.0
  0
LINE
  8
0
 62
     5
 10
0.666972
 20
110.147
 30
0.0
 11
0.813043
 21
110.331
 31
0.0
  0
LINE
  8
0
 62
     5
 10
0.813043
 20
110.331
 30
0.0
 11
0.972894
 21
110.505
 31
0.0
  0
LINE
  8
0
 62
     5
 10
0.972894
 20
110.505
 30
0.0
 11
1.14653
 21
110.665
 31
0.0
  0
LINE
  8
0
 62
     5
 10
1.14653
 20
110.665
 30
0.0
 11
1.33119
 21
110.811
 31
0.0
  0
LINE
  8
0
 62
     5
 10
1.33119
 20
110.811
 30
0.0
 11
1.52687
 21
110.94
 31
0.0
  0
LINE
  8
0
 62
     5
 10
1.52687
 20
110.94
 30
0.0
 11
1.73357
 21
111.056
 31
0.0
  0
LINE
  8
0
 62
     5
 10
1.73357
 20
111.056
 30
0.0
 11
1.94717
 21
111.154
 31
0.0
  0
LINE
  8
0
 62
     5
 10
1.94717
 20
111.154
 30
0.0
 11
2.16765
 21
111.236
 31
0.0
  0
LINE
  8
0
 62
     5
 10
2.16765
 20
111.236
 30
0.0
 11
2.39503
 21
111.3
 31
0.0
  0
LINE
  8
0
 62
     5
 10
2.39503
 20
111.3
 30
0.0
 11
2.62516
 21
111.347
 31
0.0
  0
LINE
  8
0
 62
     5
 10
2.62516
 20
111.347
 30
0.0
 11
2.85943
 21
111.373
 31
0.0
  0
LINE
  8
0
 62
     5
 10
2.85943
 20
111.373
 30
0.0
 11
3.09507
 21
111.383
 31
0.0
  0
LINE
  8
0
 62
     5
 10
3.09507
 20
111.383
 30
0.0
 11
341.708
 21
111.383
 31
0.0
  0
LINE
  8
0
 62
     5
 10
3.75514
 20
5.17867
 30
0.0
 11
3.44785
 21
5.02158
 31
0.0
  0
LINE
  8
0
 62
     5
 10
3.44785
 20
5.02158
 30
0.0
 11
3.20394
 21
4.77767
 31
0.0
  0
LINE
  8
0
 62
     5
 10
3.20394
 20
4.77767
 30
0.0
 11
3.04822
 21
4.47174
 31
0.0
  0
LINE
  8
0
 62
     5
 10
3.04822
 20
4.47174
 30
0.0
 11
2.99448
 21
4.13135
 31
0.0
  0
LINE
  8
0
 62
     5
 10
2.99448
 20
4.13135
 30
0.0
 11
3.04822
 21
3.79236
 31
0.0
  0
LINE
  8
0
 62
     5
 10
3.04822
 20
3.79236
 30
0.0
 11
3.20394
 21
3.48506
 31
0.0
  0
LINE
  8
0
 62
     5
 10
3.20394
 20
3.48506
 30
0.0
 11
3.44785
 21
3.24253
 31
0.0
  0
LINE
  8
0
 62
     5
 10
3.44785
 20
3.24253
 30
0.0
 11
3.75514
 21
3.08543
 31
0.0
  0
LINE
  8
0
 62
     5
 10
3.75514
 20
3.08543
 30
0.0
 11
4.09416
 21
3.03168
 31
0.0
  0
LINE
  8
0
 62
     5
 10
4.09416
 20
3.03168
 30
0.0
 11
4.43452
 21
3.08543
 31
0.0
  0
LINE
  8
0
 62
     5
 10
4.43452
 20
3.08543
 30
0.0
 11
4.74183
 21
3.24253
 31
0.0
  0
LINE
  8
0
 62
     5
 10
4.74183
 20
3.24253
 30
0.0
 11
4.98436
 21
3.48506
 31
0.0
  0
LINE
  8
0
 62
     5
 10
4.98436
 20
3.48506
 30
0.0
 11
5.14145
 21
3.79236
 31
0.0
  0
LINE
  8
0
 62
     5
 10
5.14145
 20
3.79236
 30
0.0
 11
5.19384
 21
4.13135
 31
0.0
  0
LINE
  8
0
 62
     5
 10
5.19384
 20
4.13135
 30
0.0
 11
5.14145
 21
4.47174
 31
0.0
  0
LINE
  8
0
 62
     5
 10
5.14145
 20
4.47174
 30
0.0
 11
4.98436
 21
4.77767
 31
0.0
  0
LINE
  8
0
 62
     5
 10
4.98436
 20
4.77767
 30
0.0
 11
4.74183
 21
5.02158
 31
0.0
  0
LINE
  8
0
 62
     5
 10
4.74183
 20
5.02158
 30
0.0
 11
4.43452
 21
5.17867
 31
0.0
  0
LINE
  8
0
 62
     5
 10
4.43452
 20
5.17867
 30
0.0
 11
4.09416
 21
5.23102
 31
0.0
  0
LINE
  8
0
 62
     5
 10
4.09416
 20
5.23102
 30
0.0
 11
3.75514
 21
5.17867
 31
0.0
  0
LINE
  8
0
 62
     5
 10
115.959
 20
5.17867
 30
0.0
 11
115.652
 21
5.02158
 31
0.0
  0
LINE
  8
0
 62
     5
 10
115.652
 20
5.02158
 30
0.0
 11
115.409
 21
4.77767
 31
0.0
  0
LINE
  8
0
 62
     5
 10
115.409
 20
4.77767
 30
0.0
 11
115.254
 21
4.47174
 31
0.0
  0
LINE
  8
0
 62
     5
 10
115.254
 20
4.47174
 30
0.0
 11
115.2
 21
4.13135
 31
0.0
  0
LINE
  8
0
 62
     5
 10
115.2
 20
4.13135
 30
0.0
 11
115.254
 21
3.79236
 31
0.0
  0
LINE
  8
0
 62
     5
 10
115.254
 20
3.79236
 30
0.0
 11
115.409
 21
3.48506
 31
0.0
  0
LINE
  8
0
 62
     5
 10
115.409
 20
3.48506
 30
0.0
 11
115.652
 21
3.24253
 31
0.0
  0
LINE
  8
0
 62
     5
 10
115.652
 20
3.24253
 30
0.0
 11
115.959
 21
3.08543
 31
0.0
  0
LINE
  8
0
 62
     5
 10
115.959
 20
3.08543
 30
0.0
 11
116.3
 21
3.03168
 31
0.0
  0
LINE
  8
0
 62
     5
 10
116.3
 20
3.03168
 30
0.0
 11
116.64
 21
3.08543
 31
0.0
  0
LINE
  8
0
 62
     5
 10
116.64
 20
3.08543
 30
0.0
 11
116.946
 21
3.24253
 31
0.0
  0
LINE
  8
0
 62
     5
 10
116.946
 20
3.24253
 30
0.0
 11
117.19
 21
3.48506
 31
0.0
  0
LINE
  8
0
 62
     5
 10
117.19
 20
3.48506
 30
0.0
 11
117.346
 21
3.79236
 31
0.0
  0
LINE
  8
0
 62
     5
 10
117.346
 20
3.79236
 30
0.0
 11
117.399
 21
4.13135
 31
0.0
  0
LINE
  8
0
 62
     5
 10
117.399
 20
4.13135
 30
0.0
 11
117.346
 21
4.47174
 31
0.0
  0
LINE
  8
0
 62
     5
 10
117.346
 20
4.47174
 30
0.0
 11
117.19
 21
4.77767
 31
0.0
  0
LINE
  8
0
 62
     5
 10
117.19
 20
4.77767
 30
0.0
 11
116.946
 21
5.02158
 31
0.0
  0
LINE
  8
0
 62
     5
 10
116.946
 20
5.02158
 30
0.0
 11
116.64
 21
5.17867
 31
0.0
  0
LINE
  8
0
 62
     5
 10
116.64
 20
5.17867
 30
0.0
 11
116.3
 21
5.23102
 31
0.0
  0
LINE
  8
0
 62
     5
 10
116.3
 20
5.23102
 30
0.0
 11
115.959
 21
5.17867
 31
0.0
  0
LINE
  8
0
 62
     5
 10
228.165
 20
5.17867
 30
0.0
 11
227.857
 21
5.02158
 31
0.0
  0
LINE
  8
0
 62
     5
 10
227.857
 20
5.02158
 30
0.0
 11
227.615
 21
4.77767
 31
0.0
  0
LINE
  8
0
 62
     5
 10
227.615
 20
4.77767
 30
0.0
 11
227.458
 21
4.47174
 31
0.0
  0
LINE
  8
0
 62
     5
 10
227.458
 20
4.47174
 30
0.0
 11
227.404
 21
4.13135
 31
0.0
  0
LINE
  8
0
 62
     5
 10
227.404
 20
4.13135
 30
0.0
 11
227.458
 21
3.79236
 31
0.0
  0
LINE
  8
0
 62
     5
 10
227.458
 20
3.79236
 30
0.0
 11
227.615
 21
3.48506
 31
0.0
  0
LINE
  8
0
 62
     5
 10
227.615
 20
3.48506
 30
0.0
 11
227.857
 21
3.24253
 31
0.0
  0
LINE
  8
0
 62
     5
 10
227.857
 20
3.24253
 30
0.0
 11
228.165
 21
3.08543
 31
0.0
  0
LINE
  8
0
 62
     5
 10
228.165
 20
3.08543
 30
0.0
 11
228.505
 21
3.03168
 31
0.0
  0
LINE
  8
0
 62
     5
 10
228.505
 20
3.03168
 30
0.0
 11
228.844
 21
3.08543
 31
0.0
  0
LINE
  8
0
 62
     5
 10
228.844
 20
3.08543
 30
0.0
 11
229.15
 21
3.24253
 31
0.0
  0
LINE
  8
0
 62
     5
 10
229.15
 20
3.24253
 30
0.0
 11
229.394
 21
3.48506
 31
0.0
  0
LINE
  8
0
 62
     5
 10
229.394
 20
3.48506
 30
0.0
 11
229.551
 21
3.79236
 31
0.0
  0
LINE
  8
0
 62
     5
 10
229.551
 20
3.79236
 30
0.0
 11
229.605
 21
4.13135
 31
0.0
  0
LINE
  8
0
 62
     5
 10
229.605
 20
4.13135
 30
0.0
 11
229.551
 21
4.47174
 31
0.0
  0
LINE
  8
0
 62
     5
 10
229.551
 20
4.47174
 30
0.0
 11
229.394
 21
4.77767
 31
0.0
  0
LINE
  8
0
 62
     5
 10
229.394
 20
4.77767
 30
0.0
 11
229.15
 21
5.02158
 31
0.0
  0
LINE
  8
0
 62
     5
 10
229.15
 20
5.02158
 30
0.0
 11
228.844
 21
5.17867
 31
0.0
  0
LINE
  8
0
 62
     5
 10
228.844
 20
5.17867
 30
0.0
 11
228.505
 21
5.23102
 31
0.0
  0
LINE
  8
0
 62
     5
 10
228.505
 20
5.23102
 30
0.0
 11
228.165
 21
5.17867
 31
0.0
  0
LINE
  8
0
 62
     5
 10
340.368
 20
5.17867
 30
0.0
 11
340.061
 21
5.02158
 31
0.0
  0
LINE
  8
0
 62
     5
 10
340.061
 20
5.02158
 30
0.0
 11
339.819
 21
4.77767
 31
0.0
  0
LINE
  8
0
 62
     5
 10
339.819
 20
4.77767
 30
0.0
 11
339.663
 21
4.47174
 31
0.0
  0
LINE
  8
0
 62
     5
 10
339.663
 20
4.47174
 30
0.0
 11
339.608
 21
4.13135
 31
0.0
  0
LINE
  8
0
 62
     5
 10
339.608
 20
4.13135
 30
0.0
 11
339.663
 21
3.79236
 31
0.0
  0
LINE
  8
0
 62
     5
 10
339.663
 20
3.79236
 30
0.0
 11
339.819
 21
3.48506
 31
0.0
  0
LINE
  8
0
 62
     5
 10
339.819
 20
3.48506
 30
0.0
 11
340.061
 21
3.24253
 31
0.0
  0
LINE
  8
0
 62
     5
 10
340.061
 20
3.24253
 30
0.0
 11
340.368
 21
3.08543
 31
0.0
  0
LINE
  8
0
 62
     5
 10
340.368
 20
3.08543
 30
0.0
 11
340.709
 21
3.03168
 31
0.0
  0
LINE
  8
0
 62
     5
 10
340.709
 20
3.03168
 30
0.0
 11
341.048
 21
3.08543
 31
0.0
  0
LINE
  8
0
 62
     5
 10
341.048
 20
3.08543
 30
0.0
 11
341.355
 21
3.24253
 31
0.0
  0
LINE
  8
0
 62
     5
 10
341.355
 20
3.24253
 30
0.0
 11
341.599
 21
3.48506
 31
0.0
  0
LINE
  8
0
 62
     5
 10
341.599
 20
3.48506
 30
0.0
 11
341.755
 21
3.79236
 31
0.0
  0
LINE
  8
0
 62
     5
 10
341.755
 20
3.79236
 30
0.0
 11
341.809
 21
4.13135
 31
0.0
  0
LINE
  8
0
 62
     5
 10
341.809
 20
4.13135
 30
0.0
 11
341.755
 21
4.47174
 31
0.0
  0
LINE
  8
0
 62
     5
 10
341.755
 20
4.47174
 30
0.0
 11
341.599
 21
4.77767
 31
0.0
  0
LINE
  8
0
 62
     5
 10
341.599
 20
4.77767
 30
0.0
 11
341.355
 21
5.02158
 31
0.0
  0
LINE
  8
0
 62
     5
 10
341.355
 20
5.02158
 30
0.0
 11
341.048
 21
5.17867
 31
0.0
  0
LINE
  8
0
 62
     5
 10
341.048
 20
5.17867
 30
0.0
 11
340.709
 21
5.23102
 31
0.0
  0
LINE
  8
0
 62
     5
 10
340.709
 20
5.23102
 30
0.0
 11
340.368
 21
5.17867
 31
0.0
  0
LINE
  8
0
 62
     5
 10
158.258
 20
24.6572
 30
0.0
 11
158.258
 21
19.9567
 31
0.0
  0
LINE
  8
0
 62
     5
 10
158.258
 20
19.9567
 30
0.0
 11
111.607
 21
19.9567
 31
0.0
  0
LINE
  8
0
 62
     5
 10
111.607
 20
19.9567
 30
0.0
 11
111.607
 21
23.1869
 31
0.0
  0
LINE
  8
0
 62
     5
 10
111.607
 20
23.1869
 30
0.0
 11
109.882
 21
23.1869
 31
0.0
  0
LINE
  8
0
 62
     5
 10
109.882
 20
23.1869
 30
0.0
 11
109.882
 21
24.1088
 31
0.0
  0
LINE
  8
0
 62
     5
 10
109.882
 20
24.1088
 30
0.0
 11
106.583
 21
24.1088
 31
0.0
  0
LINE
  8
0
 62
     5
 10
106.583
 20
24.1088
 30
0.0
 11
106.583
 21
23.1869
 31
0.0
  0
LINE
  8
0
 62
     5
 10
106.583
 20
23.1869
 30
0.0
 11
104.858
 21
23.1869
 31
0.0
  0
LINE
  8
0
 62
     5
 10
104.858
 20
23.1869
 30
0.0
 11
104.858
 21
19.9567
 31
0.0
  0
LINE
  8
0
 62
     5
 10
104.858
 20
19.9567
 30
0.0
 11
104.032
 21
19.9567
 31
0.0
  0
LINE
  8
0
 62
     5
 10
104.032
 20
19.9567
 30
0.0
 11
104.032
 21
17.1579
 31
0.0
  0
LINE
  8
0
 62
     5
 10
104.032
 20
17.1579
 30
0.0
 11
104.858
 21
17.1579
 31
0.0
  0
LINE
  8
0
 62
     5
 10
104.858
 20
17.1579
 30
0.0
 11
104.858
 21
10.8879
 31
0.0
  0
LINE
  8
0
 62
     5
 10
104.858
 20
10.8879
 30
0.0
 11
106.583
 21
10.8879
 31
0.0
  0
LINE
  8
0
 62
     5
 10
106.583
 20
10.8879
 30
0.0
 11
106.583
 21
9.90671
 31
0.0
  0
LINE
  8
0
 62
     5
 10
106.583
 20
9.90671
 30
0.0
 11
109.882
 21
9.90671
 31
0.0
  0
LINE
  8
0
 62
     5
 10
109.882
 20
9.90671
 30
0.0
 11
109.882
 21
10.8879
 31
0.0
  0
LINE
  8
0
 62
     5
 10
109.882
 20
10.8879
 30
0.0
 11
111.607
 21
10.8879
 31
0.0
  0
LINE
  8
0
 62
     5
 10
111.607
 20
10.8879
 30
0.0
 11
111.607
 21
15.3583
 31
0.0
  0
LINE
  8
0
 62
     5
 10
111.607
 20
15.3583
 30
0.0
 11
158.258
 21
15.3583
 31
0.0
  0
LINE
  8
0
 62
     5
 10
158.258
 20
15.3583
 30
0.0
 11
158.258
 21
10.6577
 31
0.0
  0
LINE
  8
0
 62
     5
 10
158.258
 20
10.6577
 30
0.0
 11
172.258
 21
10.6577
 31
0.0
  0
LINE
  8
0
 62
     5
 10
172.258
 20
10.6577
 30
0.0
 11
172.258
 21
15.3583
 31
0.0
  0
LINE
  8
0
 62
     5
 10
172.258
 20
15.3583
 30
0.0
 11
199.857
 21
15.3583
 31
0.0
  0
LINE
  8
0
 62
     5
 10
199.857
 20
15.3583
 30
0.0
 11
199.857
 21
10.8879
 31
0.0
  0
LINE
  8
0
 62
     5
 10
199.857
 20
10.8879
 30
0.0
 11
201.582
 21
10.8879
 31
0.0
  0
LINE
  8
0
 62
     5
 10
201.582
 20
10.8879
 30
0.0
 11
201.582
 21
9.90671
 31
0.0
  0
LINE
  8
0
 62
     5
 10
201.582
 20
9.90671
 30
0.0
 11
204.883
 21
9.90671
 31
0.0
  0
LINE
  8
0
 62
     5
 10
204.883
 20
9.90671
 30
0.0
 11
204.883
 21
10.8879
 31
0.0
  0
LINE
  8
0
 62
     5
 10
204.883
 20
10.8879
 30
0.0
 11
206.608
 21
10.8879
 31
0.0
  0
LINE
  8
0
 62
     5
 10
206.608
 20
10.8879
 30
0.0
 11
206.608
 21
17.1579
 31
0.0
  0
LINE
  8
0
 62
     5
 10
206.608
 20
17.1579
 30
0.0
 11
207.432
 21
17.1579
 31
0.0
  0
LINE
  8
0
 62
     5
 10
207.432
 20
17.1579
 30
0.0
 11
207.432
 21
19.9567
 31
0.0
  0
LINE
  8
0
 62
     5
 10
207.432
 20
19.9567
 30
0.0
 11
206.608
 21
19.9567
 31
0.0
  0
LINE
  8
0
 62
     5
 10
206.608
 20
19.9567
 30
0.0
 11
206.608
 21
23.1869
 31
0.0
  0
LINE
  8
0
 62
     5
 10
206.608
 20
23.1869
 30
0.0
 11
204.883
 21
23.1869
 31
0.0
  0
LINE
  8
0
 62
     5
 10
204.883
 20
23.1869
 30
0.0
 11
204.883
 21
24.1088
 31
0.0
  0
LINE
  8
0
 62
     5
 10
204.883
 20
24.1088
 30
0.0
 11
201.582
 21
24.1088
 31
0.0
  0
LINE
  8
0
 62
     5
 10
201.582
 20
24.1088
 30
0.0
 11
201.582
 21
23.1869
 31
0.0
  0
LINE
  8
0
 62
     5
 10
201.582
 20
23.1869
 30
0.0
 11
199.857
 21
23.1869
 31
0.0
  0
LINE
  8
0
 62
     5
 10
199.857
 20
23.1869
 30
0.0
 11
199.857
 21
19.9567
 31
0.0
  0
LINE
  8
0
 62
     5
 10
199.857
 20
19.9567
 30
0.0
 11
172.258
 21
19.9567
 31
0.0
  0
LINE
  8
0
 62
     5
 10
172.258
 20
19.9567
 30
0.0
 11
172.258
 21
24.6572
 31
0.0
  0
LINE
  8
0
 62
     5
 10
172.258
 20
24.6572
 30
0.0
 11
158.258
 21
24.6572
 31
0.0
  0
LINE
  8
0
 62
     5
 10
320.183
 20
24.6572
 30
0.0
 11
334.183
 21
24.6572
 31
0.0
  0
LINE
  8
0
 62
     5
 10
334.183
 20
24.6572
 30
0.0
 11
334.183
 21
10.6577
 31
0.0
  0
LINE
  8
0
 62
     5
 10
334.183
 20
10.6577
 30
0.0
 11
320.183
 21
10.6577
 31
0.0
  0
LINE
  8
0
 62
     5
 10
320.183
 20
10.6577
 30
0.0
 11
320.183
 21
24.6572
 31
0.0
  0
LINE
  8
0
 62
     5
 10
301.133
 20
24.6572
 30
0.0
 11
315.133
 21
24.6572
 31
0.0
  0
LINE
  8
0
 62
     5
 10
315.133
 20
24.6572
 30
0.0
 11
315.133
 21
10.6577
 31
0.0
  0
LINE
  8
0
 62
     5
 10
315.133
 20
10.6577
 30
0.0
 11
301.133
 21
10.6577
 31
0.0
  0
LINE
  8
0
 62
     5
 10
301.133
 20
10.6577
 30
0.0
 11
301.133
 21
24.6572
 31
0.0
  0
LINE
  8
0
 62
     5
 10
282.083
 20
24.6572
 30
0.0
 11
296.083
 21
24.6572
 31
0.0
  0
LINE
  8
0
 62
     5
 10
296.083
 20
24.6572
 30
0.0
 11
296.083
 21
10.6577
 31
0.0
  0
LINE
  8
0
 62
     5
 10
296.083
 20
10.6577
 30
0.0
 11
282.083
 21
10.6577
 31
0.0
  0
LINE
  8
0
 62
     5
 10
282.083
 20
10.6577
 30
0.0
 11
282.083
 21
24.6572
 31
0.0
  0
LINE
  8
0
 62
     5
 10
260.652
 20
24.6572
 30
0.0
 11
274.651
 21
24.6572
 31
0.0
  0
LINE
  8
0
 62
     5
 10
274.651
 20
24.6572
 30
0.0
 11
274.651
 21
10.6577
 31
0.0
  0
LINE
  8
0
 62
     5
 10
274.651
 20
10.6577
 30
0.0
 11
260.652
 21
10.6577
 31
0.0
  0
LINE
  8
0
 62
     5
 10
260.652
 20
10.6577
 30
0.0
 11
260.652
 21
24.6572
 31
0.0
  0
LINE
  8
0
 62
     5
 10
217.788
 20
24.6572
 30
0.0
 11
231.789
 21
24.6572
 31
0.0
  0
LINE
  8
0
 62
     5
 10
231.789
 20
24.6572
 30
0.0
 11
231.789
 21
10.6577
 31
0.0
  0
LINE
  8
0
 62
     5
 10
231.789
 20
10.6577
 30
0.0
 11
217.788
 21
10.6577
 31
0.0
  0
LINE
  8
0
 62
     5
 10
217.788
 20
10.6577
 30
0.0
 11
217.788
 21
24.6572
 31
0.0
  0
LINE
  8
0
 62
     5
 10
79.6766
 20
24.6572
 30
0.0
 11
93.6763
 21
24.6572
 31
0.0
  0
LINE
  8
0
 62
     5
 10
93.6763
 20
24.6572
 30
0.0
 11
93.6763
 21
10.6577
 31
0.0
  0
LINE
  8
0
 62
     5
 10
93.6763
 20
10.6577
 30
0.0
 11
79.6766
 21
10.6577
 31
0.0
  0
LINE
  8
0
 62
     5
 10
79.6766
 20
10.6577
 30
0.0
 11
79.6766
 21
24.6572
 31
0.0
  0
LINE
  8
0
 62
     5
 10
36.8131
 20
24.6572
 30
0.0
 11
50.8138
 21
24.6572
 31
0.0
  0
LINE
  8
0
 62
     5
 10
50.8138
 20
24.6572
 30
0.0
 11
50.8138
 21
10.6577
 31
0.0
  0
LINE
  8
0
 62
     5
 10
50.8138
 20
10.6577
 30
0.0
 11
36.8131
 21
10.6577
 31
0.0
  0
LINE
  8
0
 62
     5
 10
36.8131
 20
10.6577
 30
0.0
 11
36.8131
 21
24.6572
 31
0.0
  0
LINE
  8
0
 62
     5
 10
10.6192
 20
24.6572
 30
0.0
 11
24.62
 21
24.6572
 31
0.0
  0
LINE
  8
0
 62
     5
 10
24.62
 20
24.6572
 30
0.0
 11
24.62
 21
10.6577
 31
0.0
  0
LINE
  8
0
 62
     5
 10
24.62
 20
10.6577
 30
0.0
 11
10.6192
 21
10.6577
 31
0.0
  0
LINE
  8
0
 62
     5
 10
10.6192
 20
10.6577
 30
0.0
 11
10.6192
 21
24.6572
 31
0.0
  0
LINE
  8
0
 62
     5
 10
46.3381
 20
43.7074
 30
0.0
 11
46.3381
 21
39.0066
 31
0.0
  0
LINE
  8
0
 62
     5
 10
46.3381
 20
39.0066
 30
0.0
 11
44.8137
 21
39.0066
 31
0.0
  0
LINE
  8
0
 62
     5
 10
44.8137
 20
39.0066
 30
0.0
 11
44.8137
 21
42.237
 31
0.0
  0
LINE
  8
0
 62
     5
 10
44.8137
 20
42.237
 30
0.0
 11
43.0886
 21
42.237
 31
0.0
  0
LINE
  8
0
 62
     5
 10
43.0886
 20
42.237
 30
0.0
 11
43.0886
 21
43.1574
 31
0.0
  0
LINE
  8
0
 62
     5
 10
43.0886
 20
43.1574
 30
0.0
 11
39.788
 21
43.1574
 31
0.0
  0
LINE
  8
0
 62
     5
 10
39.788
 20
43.1574
 30
0.0
 11
39.788
 21
42.237
 31
0.0
  0
LINE
  8
0
 62
     5
 10
39.788
 20
42.237
 30
0.0
 11
38.064
 21
42.237
 31
0.0
  0
LINE
  8
0
 62
     5
 10
38.064
 20
42.237
 30
0.0
 11
38.064
 21
39.0066
 31
0.0
  0
LINE
  8
0
 62
     5
 10
38.064
 20
39.0066
 30
0.0
 11
37.2389
 21
39.0066
 31
0.0
  0
LINE
  8
0
 62
     5
 10
37.2389
 20
39.0066
 30
0.0
 11
37.2389
 21
36.2081
 31
0.0
  0
LINE
  8
0
 62
     5
 10
37.2389
 20
36.2081
 30
0.0
 11
38.064
 21
36.2081
 31
0.0
  0
LINE
  8
0
 62
     5
 10
38.064
 20
36.2081
 30
0.0
 11
38.064
 21
29.9379
 31
0.0
  0
LINE
  8
0
 62
     5
 10
38.064
 20
29.9379
 30
0.0
 11
39.788
 21
29.9379
 31
0.0
  0
LINE
  8
0
 62
     5
 10
39.788
 20
29.9379
 30
0.0
 11
39.788
 21
28.9567
 31
0.0
  0
LINE
  8
0
 62
     5
 10
39.788
 20
28.9567
 30
0.0
 11
43.0886
 21
28.9567
 31
0.0
  0
LINE
  8
0
 62
     5
 10
43.0886
 20
28.9567
 30
0.0
 11
43.0886
 21
29.9379
 31
0.0
  0
LINE
  8
0
 62
     5
 10
43.0886
 20
29.9379
 30
0.0
 11
44.8137
 21
29.9379
 31
0.0
  0
LINE
  8
0
 62
     5
 10
44.8137
 20
29.9379
 30
0.0
 11
44.8137
 21
34.4069
 31
0.0
  0
LINE
  8
0
 62
     5
 10
44.8137
 20
34.4069
 30
0.0
 11
46.3381
 21
34.4069
 31
0.0
  0
LINE
  8
0
 62
     5
 10
46.3381
 20
34.4069
 30
0.0
 11
46.3381
 21
29.7077
 31
0.0
  0
LINE
  8
0
 62
     5
 10
46.3381
 20
29.7077
 30
0.0
 11
60.3373
 21
29.7077
 31
0.0
  0
LINE
  8
0
 62
     5
 10
60.3373
 20
29.7077
 30
0.0
 11
60.3373
 21
34.4069
 31
0.0
  0
LINE
  8
0
 62
     5
 10
60.3373
 20
34.4069
 30
0.0
 11
61.8628
 21
34.4069
 31
0.0
  0
LINE
  8
0
 62
     5
 10
61.8628
 20
34.4069
 30
0.0
 11
61.8628
 21
29.9379
 31
0.0
  0
LINE
  8
0
 62
     5
 10
61.8628
 20
29.9379
 30
0.0
 11
63.5882
 21
29.9379
 31
0.0
  0
LINE
  8
0
 62
     5
 10
63.5882
 20
29.9379
 30
0.0
 11
63.5882
 21
28.9567
 31
0.0
  0
LINE
  8
0
 62
     5
 10
63.5882
 20
28.9567
 30
0.0
 11
66.8884
 21
28.9567
 31
0.0
  0
LINE
  8
0
 62
     5
 10
66.8884
 20
28.9567
 30
0.0
 11
66.8884
 21
29.9379
 31
0.0
  0
LINE
  8
0
 62
     5
 10
66.8884
 20
29.9379
 30
0.0
 11
68.6139
 21
29.9379
 31
0.0
  0
LINE
  8
0
 62
     5
 10
68.6139
 20
29.9379
 30
0.0
 11
68.6139
 21
36.2081
 31
0.0
  0
LINE
  8
0
 62
     5
 10
68.6139
 20
36.2081
 30
0.0
 11
69.438
 21
36.2081
 31
0.0
  0
LINE
  8
0
 62
     5
 10
69.438
 20
36.2081
 30
0.0
 11
69.438
 21
39.0066
 31
0.0
  0
LINE
  8
0
 62
     5
 10
69.438
 20
39.0066
 30
0.0
 11
68.6139
 21
39.0066
 31
0.0
  0
LINE
  8
0
 62
     5
 10
68.6139
 20
39.0066
 30
0.0
 11
68.6139
 21
42.237
 31
0.0
  0
LINE
  8
0
 62
     5
 10
68.6139
 20
42.237
 30
0.0
 11
66.8884
 21
42.237
 31
0.0
  0
LINE
  8
0
 62
     5
 10
66.8884
 20
42.237
 30
0.0
 11
66.8884
 21
43.1574
 31
0.0
  0
LINE
  8
0
 62
     5
 10
66.8884
 20
43.1574
 30
0.0
 11
63.5882
 21
43.1574
 31
0.0
  0
LINE
  8
0
 62
     5
 10
63.5882
 20
43.1574
 30
0.0
 11
63.5882
 21
42.237
 31
0.0
  0
LINE
  8
0
 62
     5
 10
63.5882
 20
42.237
 30
0.0
 11
61.8628
 21
42.237
 31
0.0
  0
LINE
  8
0
 62
     5
 10
61.8628
 20
42.237
 30
0.0
 11
61.8628
 21
39.0066
 31
0.0
  0
LINE
  8
0
 62
     5
 10
61.8628
 20
39.0066
 30
0.0
 11
60.3373
 21
39.0066
 31
0.0
  0
LINE
  8
0
 62
     5
 10
60.3373
 20
39.0066
 30
0.0
 11
60.3373
 21
43.7074
 31
0.0
  0
LINE
  8
0
 62
     5
 10
60.3373
 20
43.7074
 30
0.0
 11
46.3381
 21
43.7074
 31
0.0
  0
LINE
  8
0
 62
     5
 10
320.183
 20
43.7074
 30
0.0
 11
334.183
 21
43.7074
 31
0.0
  0
LINE
  8
0
 62
     5
 10
334.183
 20
43.7074
 30
0.0
 11
334.183
 21
29.7077
 31
0.0
  0
LINE
  8
0
 62
     5
 10
334.183
 20
29.7077
 30
0.0
 11
320.183
 21
29.7077
 31
0.0
  0
LINE
  8
0
 62
     5
 10
320.183
 20
29.7077
 30
0.0
 11
320.183
 21
43.7074
 31
0.0
  0
LINE
  8
0
 62
     5
 10
301.133
 20
43.7074
 30
0.0
 11
315.133
 21
43.7074
 31
0.0
  0
LINE
  8
0
 62
     5
 10
315.133
 20
43.7074
 30
0.0
 11
315.133
 21
29.7077
 31
0.0
  0
LINE
  8
0
 62
     5
 10
315.133
 20
29.7077
 30
0.0
 11
301.133
 21
29.7077
 31
0.0
  0
LINE
  8
0
 62
     5
 10
301.133
 20
29.7077
 30
0.0
 11
301.133
 21
43.7074
 31
0.0
  0
LINE
  8
0
 62
     5
 10
274.938
 20
43.7074
 30
0.0
 11
288.939
 21
43.7074
 31
0.0
  0
LINE
  8
0
 62
     5
 10
288.939
 20
43.7074
 30
0.0
 11
288.939
 21
29.7077
 31
0.0
  0
LINE
  8
0
 62
     5
 10
288.939
 20
29.7077
 30
0.0
 11
274.938
 21
29.7077
 31
0.0
  0
LINE
  8
0
 62
     5
 10
274.938
 20
29.7077
 30
0.0
 11
274.938
 21
43.7074
 31
0.0
  0
LINE
  8
0
 62
     5
 10
248.745
 20
43.7074
 30
0.0
 11
262.745
 21
43.7074
 31
0.0
  0
LINE
  8
0
 62
     5
 10
262.745
 20
43.7074
 30
0.0
 11
262.745
 21
29.7077
 31
0.0
  0
LINE
  8
0
 62
     5
 10
262.745
 20
29.7077
 30
0.0
 11
248.745
 21
29.7077
 31
0.0
  0
LINE
  8
0
 62
     5
 10
248.745
 20
29.7077
 30
0.0
 11
248.745
 21
43.7074
 31
0.0
  0
LINE
  8
0
 62
     5
 10
229.695
 20
43.7074
 30
0.0
 11
243.695
 21
43.7074
 31
0.0
  0
LINE
  8
0
 62
     5
 10
243.695
 20
43.7074
 30
0.0
 11
243.695
 21
29.7077
 31
0.0
  0
LINE
  8
0
 62
     5
 10
243.695
 20
29.7077
 30
0.0
 11
229.695
 21
29.7077
 31
0.0
  0
LINE
  8
0
 62
     5
 10
229.695
 20
29.7077
 30
0.0
 11
229.695
 21
43.7074
 31
0.0
  0
LINE
  8
0
 62
     5
 10
210.645
 20
43.7074
 30
0.0
 11
224.645
 21
43.7074
 31
0.0
  0
LINE
  8
0
 62
     5
 10
224.645
 20
43.7074
 30
0.0
 11
224.645
 21
29.7077
 31
0.0
  0
LINE
  8
0
 62
     5
 10
224.645
 20
29.7077
 30
0.0
 11
210.645
 21
29.7077
 31
0.0
  0
LINE
  8
0
 62
     5
 10
210.645
 20
29.7077
 30
0.0
 11
210.645
 21
43.7074
 31
0.0
  0
LINE
  8
0
 62
     5
 10
191.595
 20
43.7074
 30
0.0
 11
205.595
 21
43.7074
 31
0.0
  0
LINE
  8
0
 62
     5
 10
205.595
 20
43.7074
 30
0.0
 11
205.595
 21
29.7077
 31
0.0
  0
LINE
  8
0
 62
     5
 10
205.595
 20
29.7077
 30
0.0
 11
191.595
 21
29.7077
 31
0.0
  0
LINE
  8
0
 62
     5
 10
191.595
 20
29.7077
 30
0.0
 11
191.595
 21
43.7074
 31
0.0
  0
LINE
  8
0
 62
     5
 10
172.545
 20
43.7074
 30
0.0
 11
186.545
 21
43.7074
 31
0.0
  0
LINE
  8
0
 62
     5
 10
186.545
 20
43.7074
 30
0.0
 11
186.545
 21
29.7077
 31
0.0
  0
LINE
  8
0
 62
     5
 10
186.545
 20
29.7077
 30
0.0
 11
172.545
 21
29.7077
 31
0.0
  0
LINE
  8
0
 62
     5
 10
172.545
 20
29.7077
 30
0.0
 11
172.545
 21
43.7074
 31
0.0
  0
LINE
  8
0
 62
     5
 10
153.495
 20
43.7074
 30
0.0
 11
167.495
 21
43.7074
 31
0.0
  0
LINE
  8
0
 62
     5
 10
167.495
 20
43.7074
 30
0.0
 11
167.495
 21
29.7077
 31
0.0
  0
LINE
  8
0
 62
     5
 10
167.495
 20
29.7077
 30
0.0
 11
153.495
 21
29.7077
 31
0.0
  0
LINE
  8
0
 62
     5
 10
153.495
 20
29.7077
 30
0.0
 11
153.495
 21
43.7074
 31
0.0
  0
LINE
  8
0
 62
     5
 10
134.445
 20
43.7074
 30
0.0
 11
148.445
 21
43.7074
 31
0.0
  0
LINE
  8
0
 62
     5
 10
148.445
 20
43.7074
 30
0.0
 11
148.445
 21
29.7077
 31
0.0
  0
LINE
  8
0
 62
     5
 10
148.445
 20
29.7077
 30
0.0
 11
134.445
 21
29.7077
 31
0.0
  0
LINE
  8
0
 62
     5
 10
134.445
 20
29.7077
 30
0.0
 11
134.445
 21
43.7074
 31
0.0
  0
LINE
  8
0
 62
     5
 10
115.395
 20
43.7074
 30
0.0
 11
129.395
 21
43.7074
 31
0.0
  0
LINE
  8
0
 62
     5
 10
129.395
 20
43.7074
 30
0.0
 11
129.395
 21
29.7077
 31
0.0
  0
LINE
  8
0
 62
     5
 10
129.395
 20
29.7077
 30
0.0
 11
115.395
 21
29.7077
 31
0.0
  0
LINE
  8
0
 62
     5
 10
115.395
 20
29.7077
 30
0.0
 11
115.395
 21
43.7074
 31
0.0
  0
LINE
  8
0
 62
     5
 10
96.3454
 20
43.7074
 30
0.0
 11
110.345
 21
43.7074
 31
0.0
  0
LINE
  8
0
 62
     5
 10
110.345
 20
43.7074
 30
0.0
 11
110.345
 21
29.7077
 31
0.0
  0
LINE
  8
0
 62
     5
 10
110.345
 20
29.7077
 30
0.0
 11
96.3454
 21
29.7077
 31
0.0
  0
LINE
  8
0
 62
     5
 10
96.3454
 20
29.7077
 30
0.0
 11
96.3454
 21
43.7074
 31
0.0
  0
LINE
  8
0
 62
     5
 10
77.2954
 20
43.7074
 30
0.0
 11
91.295
 21
43.7074
 31
0.0
  0
LINE
  8
0
 62
     5
 10
91.295
 20
43.7074
 30
0.0
 11
91.295
 21
29.7077
 31
0.0
  0
LINE
  8
0
 62
     5
 10
91.295
 20
29.7077
 30
0.0
 11
77.2954
 21
29.7077
 31
0.0
  0
LINE
  8
0
 62
     5
 10
77.2954
 20
29.7077
 30
0.0
 11
77.2954
 21
43.7074
 31
0.0
  0
LINE
  8
0
 62
     5
 10
10.6192
 20
43.7074
 30
0.0
 11
24.62
 21
43.7074
 31
0.0
  0
LINE
  8
0
 62
     5
 10
24.62
 20
43.7074
 30
0.0
 11
24.62
 21
29.7077
 31
0.0
  0
LINE
  8
0
 62
     5
 10
24.62
 20
29.7077
 30
0.0
 11
10.6192
 21
29.7077
 31
0.0
  0
LINE
  8
0
 62
     5
 10
10.6192
 20
29.7077
 30
0.0
 11
10.6192
 21
43.7074
 31
0.0
  0
LINE
  8
0
 62
     5
 10
289.227
 20
62.7574
 30
0.0
 11
289.227
 21
58.0566
 31
0.0
  0
LINE
  8
0
 62
     5
 10
289.227
 20
58.0566
 30
0.0
 11
287.701
 21
58.0566
 31
0.0
  0
LINE
  8
0
 62
     5
 10
287.701
 20
58.0566
 30
0.0
 11
287.701
 21
61.287
 31
0.0
  0
LINE
  8
0
 62
     5
 10
287.701
 20
61.287
 30
0.0
 11
285.976
 21
61.287
 31
0.0
  0
LINE
  8
0
 62
     5
 10
285.976
 20
61.287
 30
0.0
 11
285.976
 21
62.2074
 31
0.0
  0
LINE
  8
0
 62
     5
 10
285.976
 20
62.2074
 30
0.0
 11
282.677
 21
62.2074
 31
0.0
  0
LINE
  8
0
 62
     5
 10
282.677
 20
62.2074
 30
0.0
 11
282.677
 21
61.287
 31
0.0
  0
LINE
  8
0
 62
     5
 10
282.677
 20
61.287
 30
0.0
 11
280.952
 21
61.287
 31
0.0
  0
LINE
  8
0
 62
     5
 10
280.952
 20
61.287
 30
0.0
 11
280.952
 21
58.0566
 31
0.0
  0
LINE
  8
0
 62
     5
 10
280.952
 20
58.0566
 30
0.0
 11
280.126
 21
58.0566
 31
0.0
  0
LINE
  8
0
 62
     5
 10
280.126
 20
58.0566
 30
0.0
 11
280.126
 21
55.2581
 31
0.0
  0
LINE
  8
0
 62
     5
 10
280.126
 20
55.2581
 30
0.0
 11
280.952
 21
55.2581
 31
0.0
  0
LINE
  8
0
 62
     5
 10
280.952
 20
55.2581
 30
0.0
 11
280.952
 21
48.9878
 31
0.0
  0
LINE
  8
0
 62
     5
 10
280.952
 20
48.9878
 30
0.0
 11
282.677
 21
48.9878
 31
0.0
  0
LINE
  8
0
 62
     5
 10
282.677
 20
48.9878
 30
0.0
 11
282.677
 21
48.0067
 31
0.0
  0
LINE
  8
0
 62
     5
 10
282.677
 20
48.0067
 30
0.0
 11
285.976
 21
48.0067
 31
0.0
  0
LINE
  8
0
 62
     5
 10
285.976
 20
48.0067
 30
0.0
 11
285.976
 21
48.9878
 31
0.0
  0
LINE
  8
0
 62
     5
 10
285.976
 20
48.9878
 30
0.0
 11
287.701
 21
48.9878
 31
0.0
  0
LINE
  8
0
 62
     5
 10
287.701
 20
48.9878
 30
0.0
 11
287.701
 21
53.4568
 31
0.0
  0
LINE
  8
0
 62
     5
 10
287.701
 20
53.4568
 30
0.0
 11
289.227
 21
53.4568
 31
0.0
  0
LINE
  8
0
 62
     5
 10
289.227
 20
53.4568
 30
0.0
 11
289.227
 21
48.7578
 31
0.0
  0
LINE
  8
0
 62
     5
 10
289.227
 20
48.7578
 30
0.0
 11
303.226
 21
48.7578
 31
0.0
  0
LINE
  8
0
 62
     5
 10
303.226
 20
48.7578
 30
0.0
 11
303.226
 21
53.4568
 31
0.0
  0
LINE
  8
0
 62
     5
 10
303.226
 20
53.4568
 30
0.0
 11
304.752
 21
53.4568
 31
0.0
  0
LINE
  8
0
 62
     5
 10
304.752
 20
53.4568
 30
0.0
 11
304.752
 21
48.9878
 31
0.0
  0
LINE
  8
0
 62
     5
 10
304.752
 20
48.9878
 30
0.0
 11
306.477
 21
48.9878
 31
0.0
  0
LINE
  8
0
 62
     5
 10
306.477
 20
48.9878
 30
0.0
 11
306.477
 21
48.0067
 31
0.0
  0
LINE
  8
0
 62
     5
 10
306.477
 20
48.0067
 30
0.0
 11
309.776
 21
48.0067
 31
0.0
  0
LINE
  8
0
 62
     5
 10
309.776
 20
48.0067
 30
0.0
 11
309.776
 21
48.9878
 31
0.0
  0
LINE
  8
0
 62
     5
 10
309.776
 20
48.9878
 30
0.0
 11
311.501
 21
48.9878
 31
0.0
  0
LINE
  8
0
 62
     5
 10
311.501
 20
48.9878
 30
0.0
 11
311.501
 21
55.2581
 31
0.0
  0
LINE
  8
0
 62
     5
 10
311.501
 20
55.2581
 30
0.0
 11
312.327
 21
55.2581
 31
0.0
  0
LINE
  8
0
 62
     5
 10
312.327
 20
55.2581
 30
0.0
 11
312.327
 21
58.0566
 31
0.0
  0
LINE
  8
0
 62
     5
 10
312.327
 20
58.0566
 30
0.0
 11
311.501
 21
58.0566
 31
0.0
  0
LINE
  8
0
 62
     5
 10
311.501
 20
58.0566
 30
0.0
 11
311.501
 21
61.287
 31
0.0
  0
LINE
  8
0
 62
     5
 10
311.501
 20
61.287
 30
0.0
 11
309.776
 21
61.287
 31
0.0
  0
LINE
  8
0
 62
     5
 10
309.776
 20
61.287
 30
0.0
 11
309.776
 21
62.2074
 31
0.0
  0
LINE
  8
0
 62
     5
 10
309.776
 20
62.2074
 30
0.0
 11
306.477
 21
62.2074
 31
0.0
  0
LINE
  8
0
 62
     5
 10
306.477
 20
62.2074
 30
0.0
 11
306.477
 21
61.287
 31
0.0
  0
LINE
  8
0
 62
     5
 10
306.477
 20
61.287
 30
0.0
 11
304.752
 21
61.287
 31
0.0
  0
LINE
  8
0
 62
     5
 10
304.752
 20
61.287
 30
0.0
 11
304.752
 21
58.0566
 31
0.0
  0
LINE
  8
0
 62
     5
 10
304.752
 20
58.0566
 30
0.0
 11
303.226
 21
58.0566
 31
0.0
  0
LINE
  8
0
 62
     5
 10
303.226
 20
58.0566
 30
0.0
 11
303.226
 21
62.7574
 31
0.0
  0
LINE
  8
0
 62
     5
 10
303.226
 20
62.7574
 30
0.0
 11
289.227
 21
62.7574
 31
0.0
  0
LINE
  8
0
 62
     5
 10
320.183
 20
62.7574
 30
0.0
 11
334.183
 21
62.7574
 31
0.0
  0
LINE
  8
0
 62
     5
 10
334.183
 20
62.7574
 30
0.0
 11
334.183
 21
48.7578
 31
0.0
  0
LINE
  8
0
 62
     5
 10
334.183
 20
48.7578
 30
0.0
 11
320.183
 21
48.7578
 31
0.0
  0
LINE
  8
0
 62
     5
 10
320.183
 20
48.7578
 30
0.0
 11
320.183
 21
62.7574
 31
0.0
  0
LINE
  8
0
 62
     5
 10
258.27
 20
62.7574
 30
0.0
 11
272.27
 21
62.7574
 31
0.0
  0
LINE
  8
0
 62
     5
 10
272.27
 20
62.7574
 30
0.0
 11
272.27
 21
48.7578
 31
0.0
  0
LINE
  8
0
 62
     5
 10
272.27
 20
48.7578
 30
0.0
 11
258.27
 21
48.7578
 31
0.0
  0
LINE
  8
0
 62
     5
 10
258.27
 20
48.7578
 30
0.0
 11
258.27
 21
62.7574
 31
0.0
  0
LINE
  8
0
 62
     5
 10
239.22
 20
62.7574
 30
0.0
 11
253.22
 21
62.7574
 31
0.0
  0
LINE
  8
0
 62
     5
 10
253.22
 20
62.7574
 30
0.0
 11
253.22
 21
48.7578
 31
0.0
  0
LINE
  8
0
 62
     5
 10
253.22
 20
48.7578
 30
0.0
 11
239.22
 21
48.7578
 31
0.0
  0
LINE
  8
0
 62
     5
 10
239.22
 20
48.7578
 30
0.0
 11
239.22
 21
62.7574
 31
0.0
  0
LINE
  8
0
 62
     5
 10
220.17
 20
62.7574
 30
0.0
 11
234.17
 21
62.7574
 31
0.0
  0
LINE
  8
0
 62
     5
 10
234.17
 20
62.7574
 30
0.0
 11
234.17
 21
48.7578
 31
0.0
  0
LINE
  8
0
 62
     5
 10
234.17
 20
48.7578
 30
0.0
 11
220.17
 21
48.7578
 31
0.0
  0
LINE
  8
0
 62
     5
 10
220.17
 20
48.7578
 30
0.0
 11
220.17
 21
62.7574
 31
0.0
  0
LINE
  8
0
 62
     5
 10
201.12
 20
62.7574
 30
0.0
 11
215.12
 21
62.7574
 31
0.0
  0
LINE
  8
0
 62
     5
 10
215.12
 20
62.7574
 30
0.0
 11
215.12
 21
48.7578
 31
0.0
  0
LINE
  8
0
 62
     5
 10
215.12
 20
48.7578
 30
0.0
 11
201.12
 21
48.7578
 31
0.0
  0
LINE
  8
0
 62
     5
 10
201.12
 20
48.7578
 30
0.0
 11
201.12
 21
62.7574
 31
0.0
  0
LINE
  8
0
 62
     5
 10
182.07
 20
62.7574
 30
0.0
 11
196.07
 21
62.7574
 31
0.0
  0
LINE
  8
0
 62
     5
 10
196.07
 20
62.7574
 30
0.0
 11
196.07
 21
48.7578
 31
0.0
  0
LINE
  8
0
 62
     5
 10
196.07
 20
48.7578
 30
0.0
 11
182.07
 21
48.7578
 31
0.0
  0
LINE
  8
0
 62
     5
 10
182.07
 20
48.7578
 30
0.0
 11
182.07
 21
62.7574
 31
0.0
  0
LINE
  8
0
 62
     5
 10
163.02
 20
62.7574
 30
0.0
 11
177.02
 21
62.7574
 31
0.0
  0
LINE
  8
0
 62
     5
 10
177.02
 20
62.7574
 30
0.0
 11
177.02
 21
48.7578
 31
0.0
  0
LINE
  8
0
 62
     5
 10
177.02
 20
48.7578
 30
0.0
 11
163.02
 21
48.7578
 31
0.0
  0
LINE
  8
0
 62
     5
 10
163.02
 20
48.7578
 30
0.0
 11
163.02
 21
62.7574
 31
0.0
  0
LINE
  8
0
 62
     5
 10
143.97
 20
62.7574
 30
0.0
 11
157.97
 21
62.7574
 31
0.0
  0
LINE
  8
0
 62
     5
 10
157.97
 20
62.7574
 30
0.0
 11
157.97
 21
48.7578
 31
0.0
  0
LINE
  8
0
 62
     5
 10
157.97
 20
48.7578
 30
0.0
 11
143.97
 21
48.7578
 31
0.0
  0
LINE
  8
0
 62
     5
 10
143.97
 20
48.7578
 30
0.0
 11
143.97
 21
62.7574
 31
0.0
  0
LINE
  8
0
 62
     5
 10
124.919
 20
62.7574
 30
0.0
 11
138.92
 21
62.7574
 31
0.0
  0
LINE
  8
0
 62
     5
 10
138.92
 20
62.7574
 30
0.0
 11
138.92
 21
48.7578
 31
0.0
  0
LINE
  8
0
 62
     5
 10
138.92
 20
48.7578
 30
0.0
 11
124.919
 21
48.7578
 31
0.0
  0
LINE
  8
0
 62
     5
 10
124.919
 20
48.7578
 30
0.0
 11
124.919
 21
62.7574
 31
0.0
  0
LINE
  8
0
 62
     5
 10
105.869
 20
62.7574
 30
0.0
 11
119.87
 21
62.7574
 31
0.0
  0
LINE
  8
0
 62
     5
 10
119.87
 20
62.7574
 30
0.0
 11
119.87
 21
48.7578
 31
0.0
  0
LINE
  8
0
 62
     5
 10
119.87
 20
48.7578
 30
0.0
 11
105.869
 21
48.7578
 31
0.0
  0
LINE
  8
0
 62
     5
 10
105.869
 20
48.7578
 30
0.0
 11
105.869
 21
62.7574
 31
0.0
  0
LINE
  8
0
 62
     5
 10
86.8204
 20
62.7574
 30
0.0
 11
100.82
 21
62.7574
 31
0.0
  0
LINE
  8
0
 62
     5
 10
100.82
 20
62.7574
 30
0.0
 11
100.82
 21
48.7578
 31
0.0
  0
LINE
  8
0
 62
     5
 10
100.82
 20
48.7578
 30
0.0
 11
86.8204
 21
48.7578
 31
0.0
  0
LINE
  8
0
 62
     5
 10
86.8204
 20
48.7578
 30
0.0
 11
86.8204
 21
62.7574
 31
0.0
  0
LINE
  8
0
 62
     5
 10
67.7704
 20
62.7574
 30
0.0
 11
81.77
 21
62.7574
 31
0.0
  0
LINE
  8
0
 62
     5
 10
81.77
 20
62.7574
 30
0.0
 11
81.77
 21
48.7578
 31
0.0
  0
LINE
  8
0
 62
     5
 10
81.77
 20
48.7578
 30
0.0
 11
67.7704
 21
48.7578
 31
0.0
  0
LINE
  8
0
 62
     5
 10
67.7704
 20
48.7578
 30
0.0
 11
67.7704
 21
62.7574
 31
0.0
  0
LINE
  8
0
 62
     5
 10
36.8131
 20
62.7574
 30
0.0
 11
50.8138
 21
62.7574
 31
0.0
  0
LINE
  8
0
 62
     5
 10
50.8138
 20
62.7574
 30
0.0
 11
50.8138
 21
48.7578
 31
0.0
  0
LINE
  8
0
 62
     5
 10
50.8138
 20
48.7578
 30
0.0
 11
36.8131
 21
48.7578
 31
0.0
  0
LINE
  8
0
 62
     5
 10
36.8131
 20
48.7578
 30
0.0
 11
36.8131
 21
62.7574
 31
0.0
  0
LINE
  8
0
 62
     5
 10
10.6192
 20
62.7574
 30
0.0
 11
24.62
 21
62.7574
 31
0.0
  0
LINE
  8
0
 62
     5
 10
24.62
 20
62.7574
 30
0.0
 11
24.62
 21
48.7578
 31
0.0
  0
LINE
  8
0
 62
     5
 10
24.62
 20
48.7578
 30
0.0
 11
10.6192
 21
48.7578
 31
0.0
  0
LINE
  8
0
 62
     5
 10
10.6192
 20
48.7578
 30
0.0
 11
10.6192
 21
62.7574
 31
0.0
  0
LINE
  8
0
 62
     5
 10
320.183
 20
81.8074
 30
0.0
 11
334.183
 21
81.8074
 31
0.0
  0
LINE
  8
0
 62
     5
 10
334.183
 20
81.8074
 30
0.0
 11
334.183
 21
67.8078
 31
0.0
  0
LINE
  8
0
 62
     5
 10
334.183
 20
67.8078
 30
0.0
 11
320.183
 21
67.8078
 31
0.0
  0
LINE
  8
0
 62
     5
 10
320.183
 20
67.8078
 30
0.0
 11
320.183
 21
81.8074
 31
0.0
  0
LINE
  8
0
 62
     5
 10
296.37
 20
81.8074
 30
0.0
 11
310.37
 21
81.8074
 31
0.0
  0
LINE
  8
0
 62
     5
 10
310.37
 20
81.8074
 30
0.0
 11
310.37
 21
67.8078
 31
0.0
  0
LINE
  8
0
 62
     5
 10
310.37
 20
67.8078
 30
0.0
 11
296.37
 21
67.8078
 31
0.0
  0
LINE
  8
0
 62
     5
 10
296.37
 20
67.8078
 30
0.0
 11
296.37
 21
81.8074
 31
0.0
  0
LINE
  8
0
 62
     5
 10
272.558
 20
81.8074
 30
0.0
 11
286.558
 21
81.8074
 31
0.0
  0
LINE
  8
0
 62
     5
 10
286.558
 20
81.8074
 30
0.0
 11
286.558
 21
67.8078
 31
0.0
  0
LINE
  8
0
 62
     5
 10
286.558
 20
67.8078
 30
0.0
 11
272.558
 21
67.8078
 31
0.0
  0
LINE
  8
0
 62
     5
 10
272.558
 20
67.8078
 30
0.0
 11
272.558
 21
81.8074
 31
0.0
  0
LINE
  8
0
 62
     5
 10
253.507
 20
81.8074
 30
0.0
 11
267.508
 21
81.8074
 31
0.0
  0
LINE
  8
0
 62
     5
 10
267.508
 20
81.8074
 30
0.0
 11
267.508
 21
67.8078
 31
0.0
  0
LINE
  8
0
 62
     5
 10
267.508
 20
67.8078
 30
0.0
 11
253.507
 21
67.8078
 31
0.0
  0
LINE
  8
0
 62
     5
 10
253.507
 20
67.8078
 30
0.0
 11
253.507
 21
81.8074
 31
0.0
  0
LINE
  8
0
 62
     5
 10
234.458
 20
81.8074
 30
0.0
 11
248.458
 21
81.8074
 31
0.0
  0
LINE
  8
0
 62
     5
 10
248.458
 20
81.8074
 30
0.0
 11
248.458
 21
67.8078
 31
0.0
  0
LINE
  8
0
 62
     5
 10
248.458
 20
67.8078
 30
0.0
 11
234.458
 21
67.8078
 31
0.0
  0
LINE
  8
0
 62
     5
 10
234.458
 20
67.8078
 30
0.0
 11
234.458
 21
81.8074
 31
0.0
  0
LINE
  8
0
 62
     5
 10
215.408
 20
81.8074
 30
0.0
 11
229.408
 21
81.8074
 31
0.0
  0
LINE
  8
0
 62
     5
 10
229.408
 20
81.8074
 30
0.0
 11
229.408
 21
67.8078
 31
0.0
  0
LINE
  8
0
 62
     5
 10
229.408
 20
67.8078
 30
0.0
 11
215.408
 21
67.8078
 31
0.0
  0
LINE
  8
0
 62
     5
 10
215.408
 20
67.8078
 30
0.0
 11
215.408
 21
81.8074
 31
0.0
  0
LINE
  8
0
 62
     5
 10
196.358
 20
81.8074
 30
0.0
 11
210.358
 21
81.8074
 31
0.0
  0
LINE
  8
0
 62
     5
 10
210.358
 20
81.8074
 30
0.0
 11
210.358
 21
67.8078
 31
0.0
  0
LINE
  8
0
 62
     5
 10
210.358
 20
67.8078
 30
0.0
 11
196.358
 21
67.8078
 31
0.0
  0
LINE
  8
0
 62
     5
 10
196.358
 20
67.8078
 30
0.0
 11
196.358
 21
81.8074
 31
0.0
  0
LINE
  8
0
 62
     5
 10
177.308
 20
81.8074
 30
0.0
 11
191.308
 21
81.8074
 31
0.0
  0
LINE
  8
0
 62
     5
 10
191.308
 20
81.8074
 30
0.0
 11
191.308
 21
67.8078
 31
0.0
  0
LINE
  8
0
 62
     5
 10
191.308
 20
67.8078
 30
0.0
 11
177.308
 21
67.8078
 31
0.0
  0
LINE
  8
0
 62
     5
 10
177.308
 20
67.8078
 30
0.0
 11
177.308
 21
81.8074
 31
0.0
  0
LINE
  8
0
 62
     5
 10
158.258
 20
81.8074
 30
0.0
 11
172.258
 21
81.8074
 31
0.0
  0
LINE
  8
0
 62
     5
 10
172.258
 20
81.8074
 30
0.0
 11
172.258
 21
67.8078
 31
0.0
  0
LINE
  8
0
 62
     5
 10
172.258
 20
67.8078
 30
0.0
 11
158.258
 21
67.8078
 31
0.0
  0
LINE
  8
0
 62
     5
 10
158.258
 20
67.8078
 30
0.0
 11
158.258
 21
81.8074
 31
0.0
  0
LINE
  8
0
 62
     5
 10
139.208
 20
81.8074
 30
0.0
 11
153.208
 21
81.8074
 31
0.0
  0
LINE
  8
0
 62
     5
 10
153.208
 20
81.8074
 30
0.0
 11
153.208
 21
67.8078
 31
0.0
  0
LINE
  8
0
 62
     5
 10
153.208
 20
67.8078
 30
0.0
 11
139.208
 21
67.8078
 31
0.0
  0
LINE
  8
0
 62
     5
 10
139.208
 20
67.8078
 30
0.0
 11
139.208
 21
81.8074
 31
0.0
  0
LINE
  8
0
 62
     5
 10
120.158
 20
81.8074
 30
0.0
 11
134.158
 21
81.8074
 31
0.0
  0
LINE
  8
0
 62
     5
 10
134.158
 20
81.8074
 30
0.0
 11
134.158
 21
67.8078
 31
0.0
  0
LINE
  8
0
 62
     5
 10
134.158
 20
67.8078
 30
0.0
 11
120.158
 21
67.8078
 31
0.0
  0
LINE
  8
0
 62
     5
 10
120.158
 20
67.8078
 30
0.0
 11
120.158
 21
81.8074
 31
0.0
  0
LINE
  8
0
 62
     5
 10
101.108
 20
81.8074
 30
0.0
 11
115.108
 21
81.8074
 31
0.0
  0
LINE
  8
0
 62
     5
 10
115.108
 20
81.8074
 30
0.0
 11
115.108
 21
67.8078
 31
0.0
  0
LINE
  8
0
 62
     5
 10
115.108
 20
67.8078
 30
0.0
 11
101.108
 21
67.8078
 31
0.0
  0
LINE
  8
0
 62
     5
 10
101.108
 20
67.8078
 30
0.0
 11
101.108
 21
81.8074
 31
0.0
  0
LINE
  8
0
 62
     5
 10
82.0579
 20
81.8074
 30
0.0
 11
96.0575
 21
81.8074
 31
0.0
  0
LINE
  8
0
 62
     5
 10
96.0575
 20
81.8074
 30
0.0
 11
96.0575
 21
67.8078
 31
0.0
  0
LINE
  8
0
 62
     5
 10
96.0575
 20
67.8078
 30
0.0
 11
82.0579
 21
67.8078
 31
0.0
  0
LINE
  8
0
 62
     5
 10
82.0579
 20
67.8078
 30
0.0
 11
82.0579
 21
81.8074
 31
0.0
  0
LINE
  8
0
 62
     5
 10
63.0079
 20
81.8074
 30
0.0
 11
77.0075
 21
81.8074
 31
0.0
  0
LINE
  8
0
 62
     5
 10
77.0075
 20
81.8074
 30
0.0
 11
77.0075
 21
67.8078
 31
0.0
  0
LINE
  8
0
 62
     5
 10
77.0075
 20
67.8078
 30
0.0
 11
63.0079
 21
67.8078
 31
0.0
  0
LINE
  8
0
 62
     5
 10
63.0079
 20
67.8078
 30
0.0
 11
63.0079
 21
81.8074
 31
0.0
  0
LINE
  8
0
 62
     5
 10
39.1954
 20
81.8074
 30
0.0
 11
53.195
 21
81.8074
 31
0.0
  0
LINE
  8
0
 62
     5
 10
53.195
 20
81.8074
 30
0.0
 11
53.195
 21
67.8078
 31
0.0
  0
LINE
  8
0
 62
     5
 10
53.195
 20
67.8078
 30
0.0
 11
39.1954
 21
67.8078
 31
0.0
  0
LINE
  8
0
 62
     5
 10
39.1954
 20
67.8078
 30
0.0
 11
39.1954
 21
81.8074
 31
0.0
  0
LINE
  8
0
 62
     5
 10
10.6192
 20
81.8074
 30
0.0
 11
24.62
 21
81.8074
 31
0.0
  0
LINE
  8
0
 62
     5
 10
24.62
 20
81.8074
 30
0.0
 11
24.62
 21
67.8078
 31
0.0
  0
LINE
  8
0
 62
     5
 10
24.62
 20
67.8078
 30
0.0
 11
10.6192
 21
67.8078
 31
0.0
  0
LINE
  8
0
 62
     5
 10
10.6192
 20
67.8078
 30
0.0
 11
10.6192
 21
81.8074
 31
0.0
  0
LINE
  8
0
 62
     5
 10
291.608
 20
100.858
 30
0.0
 11
291.608
 21
96.1581
 31
0.0
  0
LINE
  8
0
 62
     5
 10
291.608
 20
96.1581
 30
0.0
 11
290.082
 21
96.1581
 31
0.0
  0
LINE
  8
0
 62
     5
 10
290.082
 20
96.1581
 30
0.0
 11
290.082
 21
99.3881
 31
0.0
  0
LINE
  8
0
 62
     5
 10
290.082
 20
99.3881
 30
0.0
 11
288.357
 21
99.3881
 31
0.0
  0
LINE
  8
0
 62
     5
 10
288.357
 20
99.3881
 30
0.0
 11
288.357
 21
100.307
 31
0.0
  0
LINE
  8
0
 62
     5
 10
288.357
 20
100.307
 30
0.0
 11
285.057
 21
100.307
 31
0.0
  0
LINE
  8
0
 62
     5
 10
285.057
 20
100.307
 30
0.0
 11
285.057
 21
99.3881
 31
0.0
  0
LINE
  8
0
 62
     5
 10
285.057
 20
99.3881
 30
0.0
 11
283.333
 21
99.3881
 31
0.0
  0
LINE
  8
0
 62
     5
 10
283.333
 20
99.3881
 30
0.0
 11
283.333
 21
96.1581
 31
0.0
  0
LINE
  8
0
 62
     5
 10
283.333
 20
96.1581
 30
0.0
 11
282.508
 21
96.1581
 31
0.0
  0
LINE
  8
0
 62
     5
 10
282.508
 20
96.1581
 30
0.0
 11
282.508
 21
93.3581
 31
0.0
  0
LINE
  8
0
 62
     5
 10
282.508
 20
93.3581
 30
0.0
 11
283.333
 21
93.3581
 31
0.0
  0
LINE
  8
0
 62
     5
 10
283.333
 20
93.3581
 30
0.0
 11
283.333
 21
87.0878
 31
0.0
  0
LINE
  8
0
 62
     5
 10
283.333
 20
87.0878
 30
0.0
 11
285.057
 21
87.0878
 31
0.0
  0
LINE
  8
0
 62
     5
 10
285.057
 20
87.0878
 30
0.0
 11
285.057
 21
86.1067
 31
0.0
  0
LINE
  8
0
 62
     5
 10
285.057
 20
86.1067
 30
0.0
 11
288.357
 21
86.1067
 31
0.0
  0
LINE
  8
0
 62
     5
 10
288.357
 20
86.1067
 30
0.0
 11
288.357
 21
87.0878
 31
0.0
  0
LINE
  8
0
 62
     5
 10
288.357
 20
87.0878
 30
0.0
 11
290.082
 21
87.0878
 31
0.0
  0
LINE
  8
0
 62
     5
 10
290.082
 20
87.0878
 30
0.0
 11
290.082
 21
91.5568
 31
0.0
  0
LINE
  8
0
 62
     5
 10
290.082
 20
91.5568
 30
0.0
 11
291.608
 21
91.5568
 31
0.0
  0
LINE
  8
0
 62
     5
 10
291.608
 20
91.5568
 30
0.0
 11
291.608
 21
86.8578
 31
0.0
  0
LINE
  8
0
 62
     5
 10
291.608
 20
86.8578
 30
0.0
 11
305.608
 21
86.8578
 31
0.0
  0
LINE
  8
0
 62
     5
 10
305.608
 20
86.8578
 30
0.0
 11
305.608
 21
91.5568
 31
0.0
  0
LINE
  8
0
 62
     5
 10
305.608
 20
91.5568
 30
0.0
 11
307.133
 21
91.5568
 31
0.0
  0
LINE
  8
0
 62
     5
 10
307.133
 20
91.5568
 30
0.0
 11
307.133
 21
87.0878
 31
0.0
  0
LINE
  8
0
 62
     5
 10
307.133
 20
87.0878
 30
0.0
 11
308.857
 21
87.0878
 31
0.0
  0
LINE
  8
0
 62
     5
 10
308.857
 20
87.0878
 30
0.0
 11
308.857
 21
86.1067
 31
0.0
  0
LINE
  8
0
 62
     5
 10
308.857
 20
86.1067
 30
0.0
 11
312.157
 21
86.1067
 31
0.0
  0
LINE
  8
0
 62
     5
 10
312.157
 20
86.1067
 30
0.0
 11
312.157
 21
87.0878
 31
0.0
  0
LINE
  8
0
 62
     5
 10
312.157
 20
87.0878
 30
0.0
 11
313.883
 21
87.0878
 31
0.0
  0
LINE
  8
0
 62
     5
 10
313.883
 20
87.0878
 30
0.0
 11
313.883
 21
93.3581
 31
0.0
  0
LINE
  8
0
 62
     5
 10
313.883
 20
93.3581
 30
0.0
 11
314.708
 21
93.3581
 31
0.0
  0
LINE
  8
0
 62
     5
 10
314.708
 20
93.3581
 30
0.0
 11
314.708
 21
96.1581
 31
0.0
  0
LINE
  8
0
 62
     5
 10
314.708
 20
96.1581
 30
0.0
 11
313.883
 21
96.1581
 31
0.0
  0
LINE
  8
0
 62
     5
 10
313.883
 20
96.1581
 30
0.0
 11
313.883
 21
99.3881
 31
0.0
  0
LINE
  8
0
 62
     5
 10
313.883
 20
99.3881
 30
0.0
 11
312.157
 21
99.3881
 31
0.0
  0
LINE
  8
0
 62
     5
 10
312.157
 20
99.3881
 30
0.0
 11
312.157
 21
100.307
 31
0.0
  0
LINE
  8
0
 62
     5
 10
312.157
 20
100.307
 30
0.0
 11
308.857
 21
100.307
 31
0.0
  0
LINE
  8
0
 62
     5
 10
308.857
 20
100.307
 30
0.0
 11
308.857
 21
99.3881
 31
0.0
  0
LINE
  8
0
 62
     5
 10
308.857
 20
99.3881
 30
0.0
 11
307.133
 21
99.3881
 31
0.0
  0
LINE
  8
0
 62
     5
 10
307.133
 20
99.3881
 30
0.0
 11
307.133
 21
96.1581
 31
0.0
  0
LINE
  8
0
 62
     5
 10
307.133
 20
96.1581
 30
0.0
 11
305.608
 21
96.1581
 31
0.0
  0
LINE
  8
0
 62
     5
 10
305.608
 20
96.1581
 30
0.0
 11
305.608
 21
100.858
 31
0.0
  0
LINE
  8
0
 62
     5
 10
305.608
 20
100.858
 30
0.0
 11
291.608
 21
100.858
 31
0.0
  0
LINE
  8
0
 62
     5
 10
263.033
 20
100.858
 30
0.0
 11
277.033
 21
100.858
 31
0.0
  0
LINE
  8
0
 62
     5
 10
277.033
 20
100.858
 30
0.0
 11
277.033
 21
86.8578
 31
0.0
  0
LINE
  8
0
 62
     5
 10
277.033
 20
86.8578
 30
0.0
 11
263.033
 21
86.8578
 31
0.0
  0
LINE
  8
0
 62
     5
 10
263.033
 20
86.8578
 30
0.0
 11
263.033
 21
100.858
 31
0.0
  0
LINE
  8
0
 62
     5
 10
243.983
 20
100.858
 30
0.0
 11
257.983
 21
100.858
 31
0.0
  0
LINE
  8
0
 62
     5
 10
257.983
 20
100.858
 30
0.0
 11
257.983
 21
86.8578
 31
0.0
  0
LINE
  8
0
 62
     5
 10
257.983
 20
86.8578
 30
0.0
 11
243.983
 21
86.8578
 31
0.0
  0
LINE
  8
0
 62
     5
 10
243.983
 20
86.8578
 30
0.0
 11
243.983
 21
100.858
 31
0.0
  0
LINE
  8
0
 62
     5
 10
224.933
 20
100.858
 30
0.0
 11
238.933
 21
100.858
 31
0.0
  0
LINE
  8
0
 62
     5
 10
238.933
 20
100.858
 30
0.0
 11
238.933
 21
86.8578
 31
0.0
  0
LINE
  8
0
 62
     5
 10
238.933
 20
86.8578
 30
0.0
 11
224.933
 21
86.8578
 31
0.0
  0
LINE
  8
0
 62
     5
 10
224.933
 20
86.8578
 30
0.0
 11
224.933
 21
100.858
 31
0.0
  0
LINE
  8
0
 62
     5
 10
205.883
 20
100.858
 30
0.0
 11
219.883
 21
100.858
 31
0.0
  0
LINE
  8
0
 62
     5
 10
219.883
 20
100.858
 30
0.0
 11
219.883
 21
86.8578
 31
0.0
  0
LINE
  8
0
 62
     5
 10
219.883
 20
86.8578
 30
0.0
 11
205.883
 21
86.8578
 31
0.0
  0
LINE
  8
0
 62
     5
 10
205.883
 20
86.8578
 30
0.0
 11
205.883
 21
100.858
 31
0.0
  0
LINE
  8
0
 62
     5
 10
186.833
 20
100.858
 30
0.0
 11
200.833
 21
100.858
 31
0.0
  0
LINE
  8
0
 62
     5
 10
200.833
 20
100.858
 30
0.0
 11
200.833
 21
86.8578
 31
0.0
  0
LINE
  8
0
 62
     5
 10
200.833
 20
86.8578
 30
0.0
 11
186.833
 21
86.8578
 31
0.0
  0
LINE
  8
0
 62
     5
 10
186.833
 20
86.8578
 30
0.0
 11
186.833
 21
100.858
 31
0.0
  0
LINE
  8
0
 62
     5
 10
167.783
 20
100.858
 30
0.0
 11
181.783
 21
100.858
 31
0.0
  0
LINE
  8
0
 62
     5
 10
181.783
 20
100.858
 30
0.0
 11
181.783
 21
86.8578
 31
0.0
  0
LINE
  8
0
 62
     5
 10
181.783
 20
86.8578
 30
0.0
 11
167.783
 21
86.8578
 31
0.0
  0
LINE
  8
0
 62
     5
 10
167.783
 20
86.8578
 30
0.0
 11
167.783
 21
100.858
 31
0.0
  0
LINE
  8
0
 62
     5
 10
148.733
 20
100.858
 30
0.0
 11
162.733
 21
100.858
 31
0.0
  0
LINE
  8
0
 62
     5
 10
162.733
 20
100.858
 30
0.0
 11
162.733
 21
86.8578
 31
0.0
  0
LINE
  8
0
 62
     5
 10
162.733
 20
86.8578
 30
0.0
 11
148.733
 21
86.8578
 31
0.0
  0
LINE
  8
0
 62
     5
 10
148.733
 20
86.8578
 30
0.0
 11
148.733
 21
100.858
 31
0.0
  0
LINE
  8
0
 62
     5
 10
129.683
 20
100.858
 30
0.0
 11
143.683
 21
100.858
 31
0.0
  0
LINE
  8
0
 62
     5
 10
143.683
 20
100.858
 30
0.0
 11
143.683
 21
86.8578
 31
0.0
  0
LINE
  8
0
 62
     5
 10
143.683
 20
86.8578
 30
0.0
 11
129.683
 21
86.8578
 31
0.0
  0
LINE
  8
0
 62
     5
 10
129.683
 20
86.8578
 30
0.0
 11
129.683
 21
100.858
 31
0.0
  0
LINE
  8
0
 62
     5
 10
110.633
 20
100.858
 30
0.0
 11
124.633
 21
100.858
 31
0.0
  0
LINE
  8
0
 62
     5
 10
124.633
 20
100.858
 30
0.0
 11
124.633
 21
86.8578
 31
0.0
  0
LINE
  8
0
 62
     5
 10
124.633
 20
86.8578
 30
0.0
 11
110.633
 21
86.8578
 31
0.0
  0
LINE
  8
0
 62
     5
 10
110.633
 20
86.8578
 30
0.0
 11
110.633
 21
100.858
 31
0.0
  0
LINE
  8
0
 62
     5
 10
91.5829
 20
100.858
 30
0.0
 11
105.583
 21
100.858
 31
0.0
  0
LINE
  8
0
 62
     5
 10
105.583
 20
100.858
 30
0.0
 11
105.583
 21
86.8578
 31
0.0
  0
LINE
  8
0
 62
     5
 10
105.583
 20
86.8578
 30
0.0
 11
91.5829
 21
86.8578
 31
0.0
  0
LINE
  8
0
 62
     5
 10
91.5829
 20
86.8578
 30
0.0
 11
91.5829
 21
100.858
 31
0.0
  0
LINE
  8
0
 62
     5
 10
72.5329
 20
100.858
 30
0.0
 11
86.5325
 21
100.858
 31
0.0
  0
LINE
  8
0
 62
     5
 10
86.5325
 20
100.858
 30
0.0
 11
86.5325
 21
86.8578
 31
0.0
  0
LINE
  8
0
 62
     5
 10
86.5325
 20
86.8578
 30
0.0
 11
72.5329
 21
86.8578
 31
0.0
  0
LINE
  8
0
 62
     5
 10
72.5329
 20
86.8578
 30
0.0
 11
72.5329
 21
100.858
 31
0.0
  0
LINE
  8
0
 62
     5
 10
53.4829
 20
100.858
 30
0.0
 11
67.4825
 21
100.858
 31
0.0
  0
LINE
  8
0
 62
     5
 10
67.4825
 20
100.858
 30
0.0
 11
67.4825
 21
86.8578
 31
0.0
  0
LINE
  8
0
 62
     5
 10
67.4825
 20
86.8578
 30
0.0
 11
53.4829
 21
86.8578
 31
0.0
  0
LINE
  8
0
 62
     5
 10
53.4829
 20
86.8578
 30
0.0
 11
53.4829
 21
100.858
 31
0.0
  0
LINE
  8
0
 62
     5
 10
34.4331
 20
100.858
 30
0.0
 11
48.4325
 21
100.858
 31
0.0
  0
LINE
  8
0
 62
     5
 10
48.4325
 20
100.858
 30
0.0
 11
48.4325
 21
86.8578
 31
0.0
  0
LINE
  8
0
 62
     5
 10
48.4325
 20
86.8578
 30
0.0
 11
34.4331
 21
86.8578
 31
0.0
  0
LINE
  8
0
 62
     5
 10
34.4331
 20
86.8578
 30
0.0
 11
34.4331
 21
100.858
 31
0.0
  0
LINE
  8
0
 62
     5
 10
10.6192
 20
100.858
 30
0.0
 11
24.62
 21
100.858
 31
0.0
  0
LINE
  8
0
 62
     5
 10
24.62
 20
100.858
 30
0.0
 11
24.62
 21
86.8578
 31
0.0
  0
LINE
  8
0
 62
     5
 10
24.62
 20
86.8578
 30
0.0
 11
10.6192
 21
86.8578
 31
0.0
  0
LINE
  8
0
 62
     5
 10
10.6192
 20
86.8578
 30
0.0
 11
10.6192
 21
100.858
 31
0.0
  0
LINE
  8
0
 62
     5
 10
3.75514
 20
108.429
 30
0.0
 11
3.44785
 21
108.274
 31
0.0
  0
LINE
  8
0
 62
     5
 10
3.44785
 20
108.274
 30
0.0
 11
3.20394
 21
108.03
 31
0.0
  0
LINE
  8
0
 62
     5
 10
3.20394
 20
108.03
 30
0.0
 11
3.04822
 21
107.722
 31
0.0
  0
LINE
  8
0
 62
     5
 10
3.04822
 20
107.722
 30
0.0
 11
2.99448
 21
107.382
 31
0.0
  0
LINE
  8
0
 62
     5
 10
2.99448
 20
107.382
 30
0.0
 11
3.04822
 21
107.043
 31
0.0
  0
LINE
  8
0
 62
     5
 10
3.04822
 20
107.043
 30
0.0
 11
3.20394
 21
106.736
 31
0.0
  0
LINE
  8
0
 62
     5
 10
3.20394
 20
106.736
 30
0.0
 11
3.44785
 21
106.493
 31
0.0
  0
LINE
  8
0
 62
     5
 10
3.44785
 20
106.493
 30
0.0
 11
3.75514
 21
106.336
 31
0.0
  0
LINE
  8
0
 62
     5
 10
3.75514
 20
106.336
 30
0.0
 11
4.09416
 21
106.282
 31
0.0
  0
LINE
  8
0
 62
     5
 10
4.09416
 20
106.282
 30
0.0
 11
4.43452
 21
106.336
 31
0.0
  0
LINE
  8
0
 62
     5
 10
4.43452
 20
106.336
 30
0.0
 11
4.74183
 21
106.493
 31
0.0
  0
LINE
  8
0
 62
     5
 10
4.74183
 20
106.493
 30
0.0
 11
4.98436
 21
106.736
 31
0.0
  0
LINE
  8
0
 62
     5
 10
4.98436
 20
106.736
 30
0.0
 11
5.14145
 21
107.043
 31
0.0
  0
LINE
  8
0
 62
     5
 10
5.14145
 20
107.043
 30
0.0
 11
5.19384
 21
107.382
 31
0.0
  0
LINE
  8
0
 62
     5
 10
5.19384
 20
107.382
 30
0.0
 11
5.14145
 21
107.722
 31
0.0
  0
LINE
  8
0
 62
     5
 10
5.14145
 20
107.722
 30
0.0
 11
4.98436
 21
108.03
 31
0.0
  0
LINE
  8
0
 62
     5
 10
4.98436
 20
108.03
 30
0.0
 11
4.74183
 21
108.274
 31
0.0
  0
LINE
  8
0
 62
     5
 10
4.74183
 20
108.274
 30
0.0
 11
4.43452
 21
108.429
 31
0.0
  0
LINE
  8
0
 62
     5
 10
4.43452
 20
108.429
 30
0.0
 11
4.09416
 21
108.482
 31
0.0
  0
LINE
  8
0
 62
     5
 10
4.09416
 20
108.482
 30
0.0
 11
3.75514
 21
108.429
 31
0.0
  0
LINE
  8
0
 62
     5
 10
340.368
 20
108.429
 30
0.0
 11
340.061
 21
108.274
 31
0.0
  0
LINE
  8
0
 62
     5
 10
340.061
 20
108.274
 30
0.0
 11
339.819
 21
108.03
 31
0.0
  0
LINE
  8
0
 62
     5
 10
339.819
 20
108.03
 30
0.0
 11
339.663
 21
107.722
 31
0.0
  0
LINE
  8
0
 62
     5
 10
339.663
 20
107.722
 30
0.0
 11
339.608
 21
107.382
 31
0.0
  0
LINE
  8
0
 62
     5
 10
339.608
 20
107.382
 30
0.0
 11
339.663
 21
107.043
 31
0.0
  0
LINE
  8
0
 62
     5
 10
339.663
 20
107.043
 30
0.0
 11
339.819
 21
106.736
 31
0.0
  0
LINE
  8
0
 62
     5
 10
339.819
 20
106.736
 30
0.0
 11
340.061
 21
106.493
 31
0.0
  0
LINE
  8
0
 62
     5
 10
340.061
 20
106.493
 30
0.0
 11
340.368
 21
106.336
 31
0.0
  0
LINE
  8
0
 62
     5
 10
340.368
 20
106.336
 30
0.0
 11
340.709
 21
106.282
 31
0.0
  0
LINE
  8
0
 62
     5
 10
340.709
 20
106.282
 30
0.0
 11
341.048
 21
106.336
 31
0.0
  0
LINE
  8
0
 62
     5
 10
341.048
 20
106.336
 30
0.0
 11
341.355
 21
106.493
 31
0.0
  0
LINE
  8
0
 62
     5
 10
341.355
 20
106.493
 30
0.0
 11
341.599
 21
106.736
 31
0.0
  0
LINE
  8
0
 62
     5
 10
341.599
 20
106.736
 30
0.0
 11
341.755
 21
107.043
 31
0.0
  0
LINE
  8
0
 62
     5
 10
341.755
 20
107.043
 30
0.0
 11
341.809
 21
107.382
 31
0.0
  0
LINE
  8
0
 62
     5
 10
341.809
 20
107.382
 30
0.0
 11
341.755
 21
107.722
 31
0.0
  0
LINE
  8
0
 62
     5
 10
341.755
 20
107.722
 30
0.0
 11
341.599
 21
108.03
 31
0.0
  0
LINE
  8
0
 62
     5
 10
341.599
 20
108.03
 30
0.0
 11
341.355
 21
108.274
 31
0.0
  0
LINE
  8
0
 62
     5
 10
341.355
 20
108.274
 30
0.0
 11
341.048
 21
108.429
 31
0.0
  0
LINE
  8
0
 62
     5
 10
341.048
 20
108.429
 30
0.0
 11
340.709
 21
108.482
 31
0.0
  0
LINE
  8
0
 62
     5
 10
340.709
 20
108.482
 30
0.0
 11
340.368
 21
108.429
 31
0.0
  0
LINE
  8
0
 62
     5
 10
228.165
 20
108.429
 30
0.0
 11
227.857
 21
108.274
 31
0.0
  0
LINE
  8
0
 62
     5
 10
227.857
 20
108.274
 30
0.0
 11
227.615
 21
108.03
 31
0.0
  0
LINE
  8
0
 62
     5
 10
227.615
 20
108.03
 30
0.0
 11
227.458
 21
107.722
 31
0.0
  0
LINE
  8
0
 62
     5
 10
227.458
 20
107.722
 30
0.0
 11
227.404
 21
107.382
 31
0.0
  0
LINE
  8
0
 62
     5
 10
227.404
 20
107.382
 30
0.0
 11
227.458
 21
107.043
 31
0.0
  0
LINE
  8
0
 62
     5
 10
227.458
 20
107.043
 30
0.0
 11
227.615
 21
106.736
 31
0.0
  0
LINE
  8
0
 62
     5
 10
227.615
 20
106.736
 30
0.0
 11
227.857
 21
106.493
 31
0.0
  0
LINE
  8
0
 62
     5
 10
227.857
 20
106.493
 30
0.0
 11
228.165
 21
106.336
 31
0.0
  0
LINE
  8
0
 62
     5
 10
228.165
 20
106.336
 30
0.0
 11
228.505
 21
106.282
 31
0.0
  0
LINE
  8
0
 62
     5
 10
228.505
 20
106.282
 30
0.0
 11
228.844
 21
106.336
 31
0.0
  0
LINE
  8
0
 62
     5
 10
228.844
 20
106.336
 30
0.0
 11
229.15
 21
106.493
 31
0.0
  0
LINE
  8
0
 62
     5
 10
229.15
 20
106.493
 30
0.0
 11
229.394
 21
106.736
 31
0.0
  0
LINE
  8
0
 62
     5
 10
229.394
 20
106.736
 30
0.0
 11
229.551
 21
107.043
 31
0.0
  0
LINE
  8
0
 62
     5
 10
229.551
 20
107.043
 30
0.0
 11
229.605
 21
107.382
 31
0.0
  0
LINE
  8
0
 62
     5
 10
229.605
 20
107.382
 30
0.0
 11
229.551
 21
107.722
 31
0.0
  0
LINE
  8
0
 62
     5
 10
229.551
 20
107.722
 30
0.0
 11
229.394
 21
108.03
 31
0.0
  0
LINE
  8
0
 62
     5
 10
229.394
 20
108.03
 30
0.0
 11
229.15
 21
108.274
 31
0.0
  0
LINE
  8
0
 62
     5
 10
229.15
 20
108.274
 30
0.0
 11
228.844
 21
108.429
 31
0.0
  0
LINE
  8
0
 62
     5
 10
228.844
 20
108.429
 30
0.0
 11
228.505
 21
108.482
 31
0.0
  0
LINE
  8
0
 62
     5
 10
228.505
 20
108.482
 30
0.0
 11
228.165
 21
108.429
 31
0.0
  0
LINE
  8
0
 62
     5
 10
115.959
 20
108.429
 30
0.0
 11
115.652
 21
108.274
 31
0.0
  0
LINE
  8
0
 62
     5
 10
115.652
 20
108.274
 30
0.0
 11
115.409
 21
108.03
 31
0.0
  0
LINE
  8
0
 62
     5
 10
115.409
 20
108.03
 30
0.0
 11
115.254
 21
107.722
 31
0.0
  0
LINE
  8
0
 62
     5
 10
115.254
 20
107.722
 30
0.0
 11
115.2
 21
107.382
 31
0.0
  0
LINE
  8
0
 62
     5
 10
115.2
 20
107.382
 30
0.0
 11
115.254
 21
107.043
 31
0.0
  0
LINE
  8
0
 62
     5
 10
115.254
 20
107.043
 30
0.0
 11
115.409
 21
106.736
 31
0.0
  0
LINE
  8
0
 62
     5
 10
115.409
 20
106.736
 30
0.0
 11
115.652
 21
106.493
 31
0.0
  0
LINE
  8
0
 62
     5
 10
115.652
 20
106.493
 30
0.0
 11
115.959
 21
106.336
 31
0.0
  0
LINE
  8
0
 62
     5
 10
115.959
 20
106.336
 30
0.0
 11
116.3
 21
106.282
 31
0.0
  0
LINE
  8
0
 62
     5
 10
116.3
 20
106.282
 30
0.0
 11
116.64
 21
106.336
 31
0.0
  0
LINE
  8
0
 62
     5
 10
116.64
 20
106.336
 30
0.0
 11
116.946
 21
106.493
 31
0.0
  0
LINE
  8
0
 62
     5
 10
116.946
 20
106.493
 30
0.0
 11
117.19
 21
106.736
 31
0.0
  0
LINE
  8
0
 62
     5
 10
117.19
 20
106.736
 30
0.0
 11
117.346
 21
107.043
 31
0.0
  0
LINE
  8
0
 62
     5
 10
117.346
 20
107.043
 30
0.0
 11
117.399
 21
107.382
 31
0.0
  0
LINE
  8
0
 62
     5
 10
117.399
 20
107.382
 30
0.0
 11
117.346
 21
107.722
 31
0.0
  0
LINE
  8
0
 62
     5
 10
117.346
 20
107.722
 30
0.0
 11
117.19
 21
108.03
 31
0.0
  0
LINE
  8
0
 62
     5
 10
117.19
 20
108.03
 30
0.0
 11
116.946
 21
108.274
 31
0.0
  0
LINE
  8
0
 62
     5
 10
116.946
 20
108.274
 30
0.0
 11
116.64
 21
108.429
 31
0.0
  0
LINE
  8
0
 62
     5
 10
116.64
 20
108.429
 30
0.0
 11
116.3
 21
108.482
 31
0.0
  0
LINE
  8
0
 62
     5
 10
116.3
 20
108.482
 30
0.0
 11
115.959
 21
108.429
 31
0.0
  0
ENDSEC
  0
EOF
