  0
SECTION
  2
HEADER
  9
$ACADVER
  1
AC1009
  9
$EXTMIN
 10
0.0
 20
0.0
 30
0.0
  9
$EXTMAX
 10
1000.0
 20
1000.0
 30
0.0
  9
$FILLMODE
 70
 0
  9
$SPLFRAME
 70
 1
  0
ENDSEC
  0
SECTION
  2
TABLES
  0
TABLE
  2
LAYER
 70
1
  0
LAYER
  2
0
 70
     0
 62
     7
  6
CONTINUOUS
  0
ENDTAB
  0
ENDSEC
  0
SECTION
  2
ENTITIES
  0
LINE
  8
0
 62
     5
 10
341.708
 20
111.383
 30
0.0
 11
341.944
 21
111.373
 31
0.0
  0
LINE
  8
0
 62
     5
 10
341.944
 20
111.373
 30
0.0
 11
342.178
 21
111.347
 31
0.0
  0
LINE
  8
0
 62
     5
 10
342.178
 20
111.347
 30
0.0
 11
342.408
 21
111.3
 31
0.0
  0
LINE
  8
0
 62
     5
 10
342.408
 20
111.3
 30
0.0
 11
342.635
 21
111.236
 31
0.0
  0
LINE
  8
0
 62
     5
 10
342.635
 20
111.236
 30
0.0
 11
342.856
 21
111.154
 31
0.0
  0
LINE
  8
0
 62
     5
 10
342.856
 20
111.154
 30
0.0
 11
343.071
 21
111.056
 31
0.0
  0
LINE
  8
0
 62
     5
 10
343.071
 20
111.056
 30
0.0
 11
343.275
 21
110.94
 31
0.0
  0
LINE
  8
0
 62
     5
 10
343.275
 20
110.94
 30
0.0
 11
343.472
 21
110.811
 31
0.0
  0
LINE
  8
0
 62
     5
 10
343.472
 20
110.811
 30
0.0
 11
343.657
 21
110.665
 31
0.0
  0
LINE
  8
0
 62
     5
 10
343.657
 20
110.665
 30
0.0
 11
343.83
 21
110.505
 31
0.0
  0
LINE
  8
0
 62
     5
 10
343.83
 20
110.505
 30
0.0
 11
343.99
 21
110.331
 31
0.0
  0
LINE
  8
0
 62
     5
 10
343.99
 20
110.331
 30
0.0
 11
344.136
 21
110.147
 31
0.0
  0
LINE
  8
0
 62
     5
 10
344.136
 20
110.147
 30
0.0
 11
344.267
 21
109.951
 31
0.0
  0
LINE
  8
0
 62
     5
 10
344.267
 20
109.951
 30
0.0
 11
344.381
 21
109.744
 31
0.0
  0
LINE
  8
0
 62
     5
 10
344.381
 20
109.744
 30
0.0
 11
344.48
 21
109.53
 31
0.0
  0
LINE
  8
0
 62
     5
 10
344.48
 20
109.53
 30
0.0
 11
344.562
 21
109.31
 31
0.0
  0
LINE
  8
0
 62
     5
 10
344.562
 20
109.31
 30
0.0
 11
344.625
 21
109.083
 31
0.0
  0
LINE
  8
0
 62
     5
 10
344.625
 20
109.083
 30
0.0
 11
344.672
 21
108.853
 31
0.0
  0
LINE
  8
0
 62
     5
 10
344.672
 20
108.853
 30
0.0
 11
344.7
 21
108.619
 31
0.0
  0
LINE
  8
0
 62
     5
 10
344.7
 20
108.619
 30
0.0
 11
344.708
 21
108.383
 31
0.0
  0
LINE
  8
0
 62
     5
 10
344.708
 20
108.383
 30
0.0
 11
344.708
 21
3.13228
 31
0.0
  0
LINE
  8
0
 62
     5
 10
344.708
 20
3.13228
 30
0.0
 11
344.7
 21
2.89664
 31
0.0
  0
LINE
  8
0
 62
     5
 10
344.7
 20
2.89664
 30
0.0
 11
344.672
 21
2.66237
 31
0.0
  0
LINE
  8
0
 62
     5
 10
344.672
 20
2.66237
 30
0.0
 11
344.625
 21
2.43086
 31
0.0
  0
LINE
  8
0
 62
     5
 10
344.625
 20
2.43086
 30
0.0
 11
344.562
 21
2.20486
 31
0.0
  0
LINE
  8
0
 62
     5
 10
344.562
 20
2.20486
 30
0.0
 11
344.48
 21
1.983
 31
0.0
  0
LINE
  8
0
 62
     5
 10
344.48
 20
1.983
 30
0.0
 11
344.381
 21
1.77078
 31
0.0
  0
LINE
  8
0
 62
     5
 10
344.381
 20
1.77078
 30
0.0
 11
344.267
 21
1.56407
 31
0.0
  0
LINE
  8
0
 62
     5
 10
344.267
 20
1.56407
 30
0.0
 11
344.136
 21
1.36839
 31
0.0
  0
LINE
  8
0
 62
     5
 10
344.136
 20
1.36839
 30
0.0
 11
343.99
 21
1.18374
 31
0.0
  0
LINE
  8
0
 62
     5
 10
343.99
 20
1.18374
 30
0.0
 11
343.83
 21
1.0101
 31
0.0
  0
LINE
  8
0
 62
     5
 10
343.83
 20
1.0101
 30
0.0
 11
343.657
 21
0.850251
 31
0.0
  0
LINE
  8
0
 62
     5
 10
343.657
 20
0.850251
 30
0.0
 11
343.472
 21
0.704176
 31
0.0
  0
LINE
  8
0
 62
     5
 10
343.472
 20
0.704176
 30
0.0
 11
343.275
 21
0.574643
 31
0.0
  0
LINE
  8
0
 62
     5
 10
343.275
 20
0.574643
 30
0.0
 11
343.071
 21
0.458886
 31
0.0
  0
LINE
  8
0
 62
     5
 10
343.071
 20
0.458886
 30
0.0
 11
342.856
 21
0.359668
 31
0.0
  0
LINE
  8
0
 62
     5
 10
342.856
 20
0.359668
 30
0.0
 11
342.635
 21
0.278364
 31
0.0
  0
LINE
  8
0
 62
     5
 10
342.635
 20
0.278364
 30
0.0
 11
342.408
 21
0.214974
 31
0.0
  0
LINE
  8
0
 62
     5
 10
342.408
 20
0.214974
 30
0.0
 11
342.178
 21
0.168121
 31
0.0
  0
LINE
  8
0
 62
     5
 10
342.178
 20
0.168121
 30
0.0
 11
341.944
 21
0.141938
 31
0.0
  0
LINE
  8
0
 62
     5
 10
341.944
 20
0.141938
 30
0.0
 11
341.708
 21
0.130914
 31
0.0
  0
LINE
  8
0
 62
     5
 10
341.708
 20
0.130914
 30
0.0
 11
3.09507
 21
0.132292
 31
0.0
  0
LINE
  8
0
 62
     5
 10
3.09507
 20
0.132292
 30
0.0
 11
2.85943
 21
0.141938
 31
0.0
  0
LINE
  8
0
 62
     5
 10
2.85943
 20
0.141938
 30
0.0
 11
2.62516
 21
0.168121
 31
0.0
  0
LINE
  8
0
 62
     5
 10
2.62516
 20
0.168121
 30
0.0
 11
2.39503
 21
0.214974
 31
0.0
  0
LINE
  8
0
 62
     5
 10
2.39503
 20
0.214974
 30
0.0
 11
2.16765
 21
0.278364
 31
0.0
  0
LINE
  8
0
 62
     5
 10
2.16765
 20
0.278364
 30
0.0
 11
1.94717
 21
0.359668
 31
0.0
  0
LINE
  8
0
 62
     5
 10
1.94717
 20
0.359668
 30
0.0
 11
1.73357
 21
0.458886
 31
0.0
  0
LINE
  8
0
 62
     5
 10
1.73357
 20
0.458886
 30
0.0
 11
1.52687
 21
0.574643
 31
0.0
  0
LINE
  8
0
 62
     5
 10
1.52687
 20
0.574643
 30
0.0
 11
1.33119
 21
0.704176
 31
0.0
  0
LINE
  8
0
 62
     5
 10
1.33119
 20
0.704176
 30
0.0
 11
1.14653
 21
0.850251
 31
0.0
  0
LINE
  8
0
 62
     5
 10
1.14653
 20
0.850251
 30
0.0
 11
0.972894
 21
1.0101
 31
0.0
  0
LINE
  8
0
 62
     5
 10
0.972894
 20
1.0101
 30
0.0
 11
0.813043
 21
1.18374
 31
0.0
  0
LINE
  8
0
 62
     5
 10
0.813043
 20
1.18374
 30
0.0
 11
0.666972
 21
1.36839
 31
0.0
  0
LINE
  8
0
 62
     5
 10
0.666972
 20
1.36839
 30
0.0
 11
0.537436
 21
1.56407
 31
0.0
  0
LINE
  8
0
 62
     5
 10
0.537436
 20
1.56407
 30
0.0
 11
0.421679
 21
1.77078
 31
0.0
  0
LINE
  8
0
 62
     5
 10
0.421679
 20
1.77078
 30
0.0
 11
0.323839
 21
1.983
 31
0.0
  0
LINE
  8
0
 62
     5
 10
0.323839
 20
1.983
 30
0.0
 11
0.241157
 21
2.20486
 31
0.0
  0
LINE
  8
0
 62
     5
 10
0.241157
 20
2.20486
 30
0.0
 11
0.177767
 21
2.43086
 31
0.0
  0
LINE
  8
0
 62
     5
 10
0.177767
 20
2.43086
 30
0.0
 11
0.130914
 21
2.66237
 31
0.0
  0
LINE
  8
0
 62
     5
 10
0.130914
 20
2.66237
 30
0.0
 11
0.104731
 21
2.89664
 31
0.0
  0
LINE
  8
0
 62
     5
 10
0.104731
 20
2.89664
 30
0.0
 11
0.0950846
 21
3.13228
 31
0.0
  0
LINE
  8
0
 62
     5
 10
0.0950846
 20
3.13228
 30
0.0
 11
0.0950846
 21
108.383
 31
0.0
  0
LINE
  8
0
 62
     5
 10
0.0950846
 20
108.383
 30
0.0
 11
0.104731
 21
108.619
 31
0.0
  0
LINE
  8
0
 62
     5
 10
0.104731
 20
108.619
 30
0.0
 11
0.130914
 21
108.853
 31
0.0
  0
LINE
  8
0
 62
     5
 10
0.130914
 20
108.853
 30
0.0
 11
0.177767
 21
109.083
 31
0.0
  0
LINE
  8
0
 62
     5
 10
0.177767
 20
109.083
 30
0.0
 11
0.241157
 21
109.31
 31
0.0
  0
LINE
  8
0
 62
     5
 10
0.241157
 20
109.31
 30
0.0
 11
0.323839
 21
109.53
 31
0.0
  0
LINE
  8
0
 62
     5
 10
0.323839
 20
109.53
 30
0.0
 11
0.421679
 21
109.744
 31
0.0
  0
LINE
  8
0
 62
     5
 10
0.421679
 20
109.744
 30
0.0
 11
0.537436
 21
109.951
 31
0.0
  0
LINE
  8
0
 62
     5
 10
0.537436
 20
109.951
 30
0.0
 11
0.666972
 21
110.147
 31
0.0
  0
LINE
  8
0
 62
     5
 10
0.666972
 20
110.147
 30
0.0
 11
0.813043
 21
110.331
 31
0.0
  0
LINE
  8
0
 62
     5
 10
0.813043
 20
110.331
 30
0.0
 11
0.972894
 21
110.505
 31
0.0
  0
LINE
  8
0
 62
     5
 10
0.972894
 20
110.505
 30
0.0
 11
1.14653
 21
110.665
 31
0.0
  0
LINE
  8
0
 62
     5
 10
1.14653
 20
110.665
 30
0.0
 11
1.33119
 21
110.811
 31
0.0
  0
LINE
  8
0
 62
     5
 10
1.33119
 20
110.811
 30
0.0
 11
1.52687
 21
110.94
 31
0.0
  0
LINE
  8
0
 62
     5
 10
1.52687
 20
110.94
 30
0.0
 11
1.73357
 21
111.056
 31
0.0
  0
LINE
  8
0
 62
     5
 10
1.73357
 20
111.056
 30
0.0
 11
1.94717
 21
111.154
 31
0.0
  0
LINE
  8
0
 62
     5
 10
1.94717
 20
111.154
 30
0.0
 11
2.16765
 21
111.236
 31
0.0
  0
LINE
  8
0
 62
     5
 10
2.16765
 20
111.236
 30
0.0
 11
2.39503
 21
111.3
 31
0.0
  0
LINE
  8
0
 62
     5
 10
2.39503
 20
111.3
 30
0.0
 11
2.62516
 21
111.347
 31
0.0
  0
LINE
  8
0
 62
     5
 10
2.62516
 20
111.347
 30
0.0
 11
2.85943
 21
111.373
 31
0.0
  0
LINE
  8
0
 62
     5
 10
2.85943
 20
111.373
 30
0.0
 11
3.09507
 21
111.383
 31
0.0
  0
LINE
  8
0
 62
     5
 10
3.09507
 20
111.383
 30
0.0
 11
341.708
 21
111.383
 31
0.0
  0
LINE
  8
0
 62
     5
 10
3.75514
 20
5.17867
 30
0.0
 11
3.44785
 21
5.02158
 31
0.0
  0
LINE
  8
0
 62
     5
 10
3.44785
 20
5.02158
 30
0.0
 11
3.20394
 21
4.77767
 31
0.0
  0
LINE
  8
0
 62
     5
 10
3.20394
 20
4.77767
 30
0.0
 11
3.04822
 21
4.47174
 31
0.0
  0
LINE
  8
0
 62
     5
 10
3.04822
 20
4.47174
 30
0.0
 11
2.99448
 21
4.13135
 31
0.0
  0
LINE
  8
0
 62
     5
 10
2.99448
 20
4.13135
 30
0.0
 11
3.04822
 21
3.79236
 31
0.0
  0
LINE
  8
0
 62
     5
 10
3.04822
 20
3.79236
 30
0.0
 11
3.20394
 21
3.48506
 31
0.0
  0
LINE
  8
0
 62
     5
 10
3.20394
 20
3.48506
 30
0.0
 11
3.44785
 21
3.24253
 31
0.0
  0
LINE
  8
0
 62
     5
 10
3.44785
 20
3.24253
 30
0.0
 11
3.75514
 21
3.08543
 31
0.0
  0
LINE
  8
0
 62
     5
 10
3.75514
 20
3.08543
 30
0.0
 11
4.09416
 21
3.03168
 31
0.0
  0
LINE
  8
0
 62
     5
 10
4.09416
 20
3.03168
 30
0.0
 11
4.43452
 21
3.08543
 31
0.0
  0
LINE
  8
0
 62
     5
 10
4.43452
 20
3.08543
 30
0.0
 11
4.74183
 21
3.24253
 31
0.0
  0
LINE
  8
0
 62
     5
 10
4.74183
 20
3.24253
 30
0.0
 11
4.98436
 21
3.48506
 31
0.0
  0
LINE
  8
0
 62
     5
 10
4.98436
 20
3.48506
 30
0.0
 11
5.14145
 21
3.79236
 31
0.0
  0
LINE
  8
0
 62
     5
 10
5.14145
 20
3.79236
 30
0.0
 11
5.19384
 21
4.13135
 31
0.0
  0
LINE
  8
0
 62
     5
 10
5.19384
 20
4.13135
 30
0.0
 11
5.14145
 21
4.47174
 31
0.0
  0
LINE
  8
0
 62
     5
 10
5.14145
 20
4.47174
 30
0.0
 11
4.98436
 21
4.77767
 31
0.0
  0
LINE
  8
0
 62
     5
 10
4.98436
 20
4.77767
 30
0.0
 11
4.74183
 21
5.02158
 31
0.0
  0
LINE
  8
0
 62
     5
 10
4.74183
 20
5.02158
 30
0.0
 11
4.43452
 21
5.17867
 31
0.0
  0
LINE
  8
0
 62
     5
 10
4.43452
 20
5.17867
 30
0.0
 11
4.09416
 21
5.23102
 31
0.0
  0
LINE
  8
0
 62
     5
 10
4.09416
 20
5.23102
 30
0.0
 11
3.75514
 21
5.17867
 31
0.0
  0
LINE
  8
0
 62
     5
 10
115.959
 20
5.17867
 30
0.0
 11
115.652
 21
5.02158
 31
0.0
  0
LINE
  8
0
 62
     5
 10
115.652
 20
5.02158
 30
0.0
 11
115.409
 21
4.77767
 31
0.0
  0
LINE
  8
0
 62
     5
 10
115.409
 20
4.77767
 30
0.0
 11
115.254
 21
4.47174
 31
0.0
  0
LINE
  8
0
 62
     5
 10
115.254
 20
4.47174
 30
0.0
 11
115.2
 21
4.13135
 31
0.0
  0
LINE
  8
0
 62
     5
 10
115.2
 20
4.13135
 30
0.0
 11
115.254
 21
3.79236
 31
0.0
  0
LINE
  8
0
 62
     5
 10
115.254
 20
3.79236
 30
0.0
 11
115.409
 21
3.48506
 31
0.0
  0
LINE
  8
0
 62
     5
 10
115.409
 20
3.48506
 30
0.0
 11
115.652
 21
3.24253
 31
0.0
  0
LINE
  8
0
 62
     5
 10
115.652
 20
3.24253
 30
0.0
 11
115.959
 21
3.08543
 31
0.0
  0
LINE
  8
0
 62
     5
 10
115.959
 20
3.08543
 30
0.0
 11
116.3
 21
3.03168
 31
0.0
  0
LINE
  8
0
 62
     5
 10
116.3
 20
3.03168
 30
0.0
 11
116.64
 21
3.08543
 31
0.0
  0
LINE
  8
0
 62
     5
 10
116.64
 20
3.08543
 30
0.0
 11
116.946
 21
3.24253
 31
0.0
  0
LINE
  8
0
 62
     5
 10
116.946
 20
3.24253
 30
0.0
 11
117.19
 21
3.48506
 31
0.0
  0
LINE
  8
0
 62
     5
 10
117.19
 20
3.48506
 30
0.0
 11
117.346
 21
3.79236
 31
0.0
  0
LINE
  8
0
 62
     5
 10
117.346
 20
3.79236
 30
0.0
 11
117.399
 21
4.13135
 31
0.0
  0
LINE
  8
0
 62
     5
 10
117.399
 20
4.13135
 30
0.0
 11
117.346
 21
4.47174
 31
0.0
  0
LINE
  8
0
 62
     5
 10
117.346
 20
4.47174
 30
0.0
 11
117.19
 21
4.77767
 31
0.0
  0
LINE
  8
0
 62
     5
 10
117.19
 20
4.77767
 30
0.0
 11
116.946
 21
5.02158
 31
0.0
  0
LINE
  8
0
 62
     5
 10
116.946
 20
5.02158
 30
0.0
 11
116.64
 21
5.17867
 31
0.0
  0
LINE
  8
0
 62
     5
 10
116.64
 20
5.17867
 30
0.0
 11
116.3
 21
5.23102
 31
0.0
  0
LINE
  8
0
 62
     5
 10
116.3
 20
5.23102
 30
0.0
 11
115.959
 21
5.17867
 31
0.0
  0
LINE
  8
0
 62
     5
 10
228.165
 20
5.17867
 30
0.0
 11
227.857
 21
5.02158
 31
0.0
  0
LINE
  8
0
 62
     5
 10
227.857
 20
5.02158
 30
0.0
 11
227.615
 21
4.77767
 31
0.0
  0
LINE
  8
0
 62
     5
 10
227.615
 20
4.77767
 30
0.0
 11
227.458
 21
4.47174
 31
0.0
  0
LINE
  8
0
 62
     5
 10
227.458
 20
4.47174
 30
0.0
 11
227.404
 21
4.13135
 31
0.0
  0
LINE
  8
0
 62
     5
 10
227.404
 20
4.13135
 30
0.0
 11
227.458
 21
3.79236
 31
0.0
  0
LINE
  8
0
 62
     5
 10
227.458
 20
3.79236
 30
0.0
 11
227.615
 21
3.48506
 31
0.0
  0
LINE
  8
0
 62
     5
 10
227.615
 20
3.48506
 30
0.0
 11
227.857
 21
3.24253
 31
0.0
  0
LINE
  8
0
 62
     5
 10
227.857
 20
3.24253
 30
0.0
 11
228.165
 21
3.08543
 31
0.0
  0
LINE
  8
0
 62
     5
 10
228.165
 20
3.08543
 30
0.0
 11
228.505
 21
3.03168
 31
0.0
  0
LINE
  8
0
 62
     5
 10
228.505
 20
3.03168
 30
0.0
 11
228.844
 21
3.08543
 31
0.0
  0
LINE
  8
0
 62
     5
 10
228.844
 20
3.08543
 30
0.0
 11
229.15
 21
3.24253
 31
0.0
  0
LINE
  8
0
 62
     5
 10
229.15
 20
3.24253
 30
0.0
 11
229.394
 21
3.48506
 31
0.0
  0
LINE
  8
0
 62
     5
 10
229.394
 20
3.48506
 30
0.0
 11
229.551
 21
3.79236
 31
0.0
  0
LINE
  8
0
 62
     5
 10
229.551
 20
3.79236
 30
0.0
 11
229.605
 21
4.13135
 31
0.0
  0
LINE
  8
0
 62
     5
 10
229.605
 20
4.13135
 30
0.0
 11
229.551
 21
4.47174
 31
0.0
  0
LINE
  8
0
 62
     5
 10
229.551
 20
4.47174
 30
0.0
 11
229.394
 21
4.77767
 31
0.0
  0
LINE
  8
0
 62
     5
 10
229.394
 20
4.77767
 30
0.0
 11
229.15
 21
5.02158
 31
0.0
  0
LINE
  8
0
 62
     5
 10
229.15
 20
5.02158
 30
0.0
 11
228.844
 21
5.17867
 31
0.0
  0
LINE
  8
0
 62
     5
 10
228.844
 20
5.17867
 30
0.0
 11
228.505
 21
5.23102
 31
0.0
  0
LINE
  8
0
 62
     5
 10
228.505
 20
5.23102
 30
0.0
 11
228.165
 21
5.17867
 31
0.0
  0
LINE
  8
0
 62
     5
 10
340.368
 20
5.17867
 30
0.0
 11
340.061
 21
5.02158
 31
0.0
  0
LINE
  8
0
 62
     5
 10
340.061
 20
5.02158
 30
0.0
 11
339.819
 21
4.77767
 31
0.0
  0
LINE
  8
0
 62
     5
 10
339.819
 20
4.77767
 30
0.0
 11
339.663
 21
4.47174
 31
0.0
  0
LINE
  8
0
 62
     5
 10
339.663
 20
4.47174
 30
0.0
 11
339.608
 21
4.13135
 31
0.0
  0
LINE
  8
0
 62
     5
 10
339.608
 20
4.13135
 30
0.0
 11
339.663
 21
3.79236
 31
0.0
  0
LINE
  8
0
 62
     5
 10
339.663
 20
3.79236
 30
0.0
 11
339.819
 21
3.48506
 31
0.0
  0
LINE
  8
0
 62
     5
 10
339.819
 20
3.48506
 30
0.0
 11
340.061
 21
3.24253
 31
0.0
  0
LINE
  8
0
 62
     5
 10
340.061
 20
3.24253
 30
0.0
 11
340.368
 21
3.08543
 31
0.0
  0
LINE
  8
0
 62
     5
 10
340.368
 20
3.08543
 30
0.0
 11
340.709
 21
3.03168
 31
0.0
  0
LINE
  8
0
 62
     5
 10
340.709
 20
3.03168
 30
0.0
 11
341.048
 21
3.08543
 31
0.0
  0
LINE
  8
0
 62
     5
 10
341.048
 20
3.08543
 30
0.0
 11
341.355
 21
3.24253
 31
0.0
  0
LINE
  8
0
 62
     5
 10
341.355
 20
3.24253
 30
0.0
 11
341.599
 21
3.48506
 31
0.0
  0
LINE
  8
0
 62
     5
 10
341.599
 20
3.48506
 30
0.0
 11
341.755
 21
3.79236
 31
0.0
  0
LINE
  8
0
 62
     5
 10
341.755
 20
3.79236
 30
0.0
 11
341.809
 21
4.13135
 31
0.0
  0
LINE
  8
0
 62
     5
 10
341.809
 20
4.13135
 30
0.0
 11
341.755
 21
4.47174
 31
0.0
  0
LINE
  8
0
 62
     5
 10
341.755
 20
4.47174
 30
0.0
 11
341.599
 21
4.77767
 31
0.0
  0
LINE
  8
0
 62
     5
 10
341.599
 20
4.77767
 30
0.0
 11
341.355
 21
5.02158
 31
0.0
  0
LINE
  8
0
 62
     5
 10
341.355
 20
5.02158
 30
0.0
 11
341.048
 21
5.17867
 31
0.0
  0
LINE
  8
0
 62
     5
 10
341.048
 20
5.17867
 30
0.0
 11
340.709
 21
5.23102
 31
0.0
  0
LINE
  8
0
 62
     5
 10
340.709
 20
5.23102
 30
0.0
 11
340.368
 21
5.17867
 31
0.0
  0
LINE
  8
0
 62
     5
 10
31.9071
 20
103.385
 30
0.0
 11
31.9071
 21
8.13181
 31
0.0
  0
LINE
  8
0
 62
     5
 10
31.9071
 20
8.13181
 30
0.0
 11
55.7209
 21
8.13181
 31
0.0
  0
LINE
  8
0
 62
     5
 10
55.7209
 20
8.13181
 30
0.0
 11
55.7209
 21
27.1818
 31
0.0
  0
LINE
  8
0
 62
     5
 10
55.7209
 20
27.1818
 30
0.0
 11
74.7681
 21
27.1818
 31
0.0
  0
LINE
  8
0
 62
     5
 10
74.7681
 20
27.1818
 30
0.0
 11
74.7681
 21
8.13181
 31
0.0
  0
LINE
  8
0
 62
     5
 10
74.7681
 20
8.13181
 30
0.0
 11
236.696
 21
8.13181
 31
0.0
  0
LINE
  8
0
 62
     5
 10
236.696
 20
8.13181
 30
0.0
 11
236.696
 21
27.1818
 31
0.0
  0
LINE
  8
0
 62
     5
 10
236.696
 20
27.1818
 30
0.0
 11
255.744
 21
27.1818
 31
0.0
  0
LINE
  8
0
 62
     5
 10
255.744
 20
27.1818
 30
0.0
 11
255.744
 21
8.13181
 31
0.0
  0
LINE
  8
0
 62
     5
 10
255.744
 20
8.13181
 30
0.0
 11
336.708
 21
8.13181
 31
0.0
  0
LINE
  8
0
 62
     5
 10
336.708
 20
8.13181
 30
0.0
 11
336.708
 21
84.3333
 31
0.0
  0
LINE
  8
0
 62
     5
 10
336.708
 20
84.3333
 30
0.0
 11
317.658
 21
84.3333
 31
0.0
  0
LINE
  8
0
 62
     5
 10
317.658
 20
84.3333
 30
0.0
 11
317.658
 21
103.385
 31
0.0
  0
LINE
  8
0
 62
     5
 10
317.658
 20
103.385
 30
0.0
 11
31.9071
 21
103.385
 31
0.0
  0
LINE
  8
0
 62
     5
 10
8.09322
 20
103.385
 30
0.0
 11
27.146
 21
103.385
 31
0.0
  0
LINE
  8
0
 62
     5
 10
27.146
 20
103.385
 30
0.0
 11
27.146
 21
8.13181
 31
0.0
  0
LINE
  8
0
 62
     5
 10
27.146
 20
8.13181
 30
0.0
 11
8.09322
 21
8.13181
 31
0.0
  0
LINE
  8
0
 62
     5
 10
8.09322
 20
8.13181
 30
0.0
 11
8.09322
 21
103.385
 31
0.0
  0
LINE
  8
0
 62
     5
 10
3.75514
 20
108.429
 30
0.0
 11
3.44785
 21
108.274
 31
0.0
  0
LINE
  8
0
 62
     5
 10
3.44785
 20
108.274
 30
0.0
 11
3.20394
 21
108.03
 31
0.0
  0
LINE
  8
0
 62
     5
 10
3.20394
 20
108.03
 30
0.0
 11
3.04822
 21
107.722
 31
0.0
  0
LINE
  8
0
 62
     5
 10
3.04822
 20
107.722
 30
0.0
 11
2.99448
 21
107.382
 31
0.0
  0
LINE
  8
0
 62
     5
 10
2.99448
 20
107.382
 30
0.0
 11
3.04822
 21
107.043
 31
0.0
  0
LINE
  8
0
 62
     5
 10
3.04822
 20
107.043
 30
0.0
 11
3.20394
 21
106.736
 31
0.0
  0
LINE
  8
0
 62
     5
 10
3.20394
 20
106.736
 30
0.0
 11
3.44785
 21
106.493
 31
0.0
  0
LINE
  8
0
 62
     5
 10
3.44785
 20
106.493
 30
0.0
 11
3.75514
 21
106.336
 31
0.0
  0
LINE
  8
0
 62
     5
 10
3.75514
 20
106.336
 30
0.0
 11
4.09416
 21
106.282
 31
0.0
  0
LINE
  8
0
 62
     5
 10
4.09416
 20
106.282
 30
0.0
 11
4.43452
 21
106.336
 31
0.0
  0
LINE
  8
0
 62
     5
 10
4.43452
 20
106.336
 30
0.0
 11
4.74183
 21
106.493
 31
0.0
  0
LINE
  8
0
 62
     5
 10
4.74183
 20
106.493
 30
0.0
 11
4.98436
 21
106.736
 31
0.0
  0
LINE
  8
0
 62
     5
 10
4.98436
 20
106.736
 30
0.0
 11
5.14145
 21
107.043
 31
0.0
  0
LINE
  8
0
 62
     5
 10
5.14145
 20
107.043
 30
0.0
 11
5.19384
 21
107.382
 31
0.0
  0
LINE
  8
0
 62
     5
 10
5.19384
 20
107.382
 30
0.0
 11
5.14145
 21
107.722
 31
0.0
  0
LINE
  8
0
 62
     5
 10
5.14145
 20
107.722
 30
0.0
 11
4.98436
 21
108.03
 31
0.0
  0
LINE
  8
0
 62
     5
 10
4.98436
 20
108.03
 30
0.0
 11
4.74183
 21
108.274
 31
0.0
  0
LINE
  8
0
 62
     5
 10
4.74183
 20
108.274
 30
0.0
 11
4.43452
 21
108.429
 31
0.0
  0
LINE
  8
0
 62
     5
 10
4.43452
 20
108.429
 30
0.0
 11
4.09416
 21
108.482
 31
0.0
  0
LINE
  8
0
 62
     5
 10
4.09416
 20
108.482
 30
0.0
 11
3.75514
 21
108.429
 31
0.0
  0
LINE
  8
0
 62
     5
 10
340.368
 20
108.429
 30
0.0
 11
340.061
 21
108.274
 31
0.0
  0
LINE
  8
0
 62
     5
 10
340.061
 20
108.274
 30
0.0
 11
339.819
 21
108.03
 31
0.0
  0
LINE
  8
0
 62
     5
 10
339.819
 20
108.03
 30
0.0
 11
339.663
 21
107.722
 31
0.0
  0
LINE
  8
0
 62
     5
 10
339.663
 20
107.722
 30
0.0
 11
339.608
 21
107.382
 31
0.0
  0
LINE
  8
0
 62
     5
 10
339.608
 20
107.382
 30
0.0
 11
339.663
 21
107.043
 31
0.0
  0
LINE
  8
0
 62
     5
 10
339.663
 20
107.043
 30
0.0
 11
339.819
 21
106.736
 31
0.0
  0
LINE
  8
0
 62
     5
 10
339.819
 20
106.736
 30
0.0
 11
340.061
 21
106.493
 31
0.0
  0
LINE
  8
0
 62
     5
 10
340.061
 20
106.493
 30
0.0
 11
340.368
 21
106.336
 31
0.0
  0
LINE
  8
0
 62
     5
 10
340.368
 20
106.336
 30
0.0
 11
340.709
 21
106.282
 31
0.0
  0
LINE
  8
0
 62
     5
 10
340.709
 20
106.282
 30
0.0
 11
341.048
 21
106.336
 31
0.0
  0
LINE
  8
0
 62
     5
 10
341.048
 20
106.336
 30
0.0
 11
341.355
 21
106.493
 31
0.0
  0
LINE
  8
0
 62
     5
 10
341.355
 20
106.493
 30
0.0
 11
341.599
 21
106.736
 31
0.0
  0
LINE
  8
0
 62
     5
 10
341.599
 20
106.736
 30
0.0
 11
341.755
 21
107.043
 31
0.0
  0
LINE
  8
0
 62
     5
 10
341.755
 20
107.043
 30
0.0
 11
341.809
 21
107.382
 31
0.0
  0
LINE
  8
0
 62
     5
 10
341.809
 20
107.382
 30
0.0
 11
341.755
 21
107.722
 31
0.0
  0
LINE
  8
0
 62
     5
 10
341.755
 20
107.722
 30
0.0
 11
341.599
 21
108.03
 31
0.0
  0
LINE
  8
0
 62
     5
 10
341.599
 20
108.03
 30
0.0
 11
341.355
 21
108.274
 31
0.0
  0
LINE
  8
0
 62
     5
 10
341.355
 20
108.274
 30
0.0
 11
341.048
 21
108.429
 31
0.0
  0
LINE
  8
0
 62
     5
 10
341.048
 20
108.429
 30
0.0
 11
340.709
 21
108.482
 31
0.0
  0
LINE
  8
0
 62
     5
 10
340.709
 20
108.482
 30
0.0
 11
340.368
 21
108.429
 31
0.0
  0
LINE
  8
0
 62
     5
 10
228.165
 20
108.429
 30
0.0
 11
227.857
 21
108.274
 31
0.0
  0
LINE
  8
0
 62
     5
 10
227.857
 20
108.274
 30
0.0
 11
227.615
 21
108.03
 31
0.0
  0
LINE
  8
0
 62
     5
 10
227.615
 20
108.03
 30
0.0
 11
227.458
 21
107.722
 31
0.0
  0
LINE
  8
0
 62
     5
 10
227.458
 20
107.722
 30
0.0
 11
227.404
 21
107.382
 31
0.0
  0
LINE
  8
0
 62
     5
 10
227.404
 20
107.382
 30
0.0
 11
227.458
 21
107.043
 31
0.0
  0
LINE
  8
0
 62
     5
 10
227.458
 20
107.043
 30
0.0
 11
227.615
 21
106.736
 31
0.0
  0
LINE
  8
0
 62
     5
 10
227.615
 20
106.736
 30
0.0
 11
227.857
 21
106.493
 31
0.0
  0
LINE
  8
0
 62
     5
 10
227.857
 20
106.493
 30
0.0
 11
228.165
 21
106.336
 31
0.0
  0
LINE
  8
0
 62
     5
 10
228.165
 20
106.336
 30
0.0
 11
228.505
 21
106.282
 31
0.0
  0
LINE
  8
0
 62
     5
 10
228.505
 20
106.282
 30
0.0
 11
228.844
 21
106.336
 31
0.0
  0
LINE
  8
0
 62
     5
 10
228.844
 20
106.336
 30
0.0
 11
229.15
 21
106.493
 31
0.0
  0
LINE
  8
0
 62
     5
 10
229.15
 20
106.493
 30
0.0
 11
229.394
 21
106.736
 31
0.0
  0
LINE
  8
0
 62
     5
 10
229.394
 20
106.736
 30
0.0
 11
229.551
 21
107.043
 31
0.0
  0
LINE
  8
0
 62
     5
 10
229.551
 20
107.043
 30
0.0
 11
229.605
 21
107.382
 31
0.0
  0
LINE
  8
0
 62
     5
 10
229.605
 20
107.382
 30
0.0
 11
229.551
 21
107.722
 31
0.0
  0
LINE
  8
0
 62
     5
 10
229.551
 20
107.722
 30
0.0
 11
229.394
 21
108.03
 31
0.0
  0
LINE
  8
0
 62
     5
 10
229.394
 20
108.03
 30
0.0
 11
229.15
 21
108.274
 31
0.0
  0
LINE
  8
0
 62
     5
 10
229.15
 20
108.274
 30
0.0
 11
228.844
 21
108.429
 31
0.0
  0
LINE
  8
0
 62
     5
 10
228.844
 20
108.429
 30
0.0
 11
228.505
 21
108.482
 31
0.0
  0
LINE
  8
0
 62
     5
 10
228.505
 20
108.482
 30
0.0
 11
228.165
 21
108.429
 31
0.0
  0
LINE
  8
0
 62
     5
 10
115.959
 20
108.429
 30
0.0
 11
115.652
 21
108.274
 31
0.0
  0
LINE
  8
0
 62
     5
 10
115.652
 20
108.274
 30
0.0
 11
115.409
 21
108.03
 31
0.0
  0
LINE
  8
0
 62
     5
 10
115.409
 20
108.03
 30
0.0
 11
115.254
 21
107.722
 31
0.0
  0
LINE
  8
0
 62
     5
 10
115.254
 20
107.722
 30
0.0
 11
115.2
 21
107.382
 31
0.0
  0
LINE
  8
0
 62
     5
 10
115.2
 20
107.382
 30
0.0
 11
115.254
 21
107.043
 31
0.0
  0
LINE
  8
0
 62
     5
 10
115.254
 20
107.043
 30
0.0
 11
115.409
 21
106.736
 31
0.0
  0
LINE
  8
0
 62
     5
 10
115.409
 20
106.736
 30
0.0
 11
115.652
 21
106.493
 31
0.0
  0
LINE
  8
0
 62
     5
 10
115.652
 20
106.493
 30
0.0
 11
115.959
 21
106.336
 31
0.0
  0
LINE
  8
0
 62
     5
 10
115.959
 20
106.336
 30
0.0
 11
116.3
 21
106.282
 31
0.0
  0
LINE
  8
0
 62
     5
 10
116.3
 20
106.282
 30
0.0
 11
116.64
 21
106.336
 31
0.0
  0
LINE
  8
0
 62
     5
 10
116.64
 20
106.336
 30
0.0
 11
116.946
 21
106.493
 31
0.0
  0
LINE
  8
0
 62
     5
 10
116.946
 20
106.493
 30
0.0
 11
117.19
 21
106.736
 31
0.0
  0
LINE
  8
0
 62
     5
 10
117.19
 20
106.736
 30
0.0
 11
117.346
 21
107.043
 31
0.0
  0
LINE
  8
0
 62
     5
 10
117.346
 20
107.043
 30
0.0
 11
117.399
 21
107.382
 31
0.0
  0
LINE
  8
0
 62
     5
 10
117.399
 20
107.382
 30
0.0
 11
117.346
 21
107.722
 31
0.0
  0
LINE
  8
0
 62
     5
 10
117.346
 20
107.722
 30
0.0
 11
117.19
 21
108.03
 31
0.0
  0
LINE
  8
0
 62
     5
 10
117.19
 20
108.03
 30
0.0
 11
116.946
 21
108.274
 31
0.0
  0
LINE
  8
0
 62
     5
 10
116.946
 20
108.274
 30
0.0
 11
116.64
 21
108.429
 31
0.0
  0
LINE
  8
0
 62
     5
 10
116.64
 20
108.429
 30
0.0
 11
116.3
 21
108.482
 31
0.0
  0
LINE
  8
0
 62
     5
 10
116.3
 20
108.482
 30
0.0
 11
115.959
 21
108.429
 31
0.0
  0
ENDSEC
  0
EOF
